<?xml version="1.0" encoding="UTF-8" standalone="no"?>
<svg
   xmlns:dc="http://purl.org/dc/elements/1.1/"
   xmlns:cc="http://creativecommons.org/ns#"
   xmlns:rdf="http://www.w3.org/1999/02/22-rdf-syntax-ns#"
   xmlns:svg="http://www.w3.org/2000/svg"
   xmlns="http://www.w3.org/2000/svg"
   version="1.1"
   viewBox="0 0 1145.7 817.62"
   height="817.62"
   width="1145.7"
   data-name="Layer 1"
   id="a6f2a3fe-ee7b-4c46-9096-1e4866052bb7">
  <metadata
     id="metadata138">
    <rdf:RDF>
      <cc:Work
         rdf:about="">
        <dc:format>image/svg+xml</dc:format>
        <dc:type
           rdf:resource="http://purl.org/dc/dcmitype/StillImage" />
        <dc:title></dc:title>
      </cc:Work>
    </rdf:RDF>
  </metadata>
  <defs
     id="defs9" />
  <path
     style="opacity:0.15"
     id="path13"
     opacity="0.1"
     fill="#ffffff"
     transform="translate(-27.15 -41.19)"
     d="M1172.85,495.29A268.06,268.06,0,0,1,862.36,759.81H437.65a364.06,364.06,0,0,1-49.5,3.38c-161.35,0-298-105.86-344.22-251.91A360.77,360.77,0,0,1,27.15,402.19c0-199.38,161.63-361,361-361C548.72,41.19,684.78,146,731.67,291A266.84,266.84,0,0,1,905,227.39C1052.91,227.39,1172.85,347.33,1172.85,495.29Z" />
  <path
     style="opacity:0.15"
     id="path15"
     opacity="0.1"
     fill="#ffffff"
     transform="translate(-27.15 -41.19)"
     d="M1069.94,706.36a268.31,268.31,0,0,1-207.58,53.45H437.65a364.06,364.06,0,0,1-49.5,3.38c-161.35,0-298-105.86-344.22-251.91C78.5,437.39,167.34,384.81,271.5,384.81c101.5,0,188.45,49.94,224.81,120.87a301.82,301.82,0,0,1,54.19-4.87c105.2,0,194.77,53.65,228.59,128.71a295.63,295.63,0,0,1,86.41-12.71C951.3,616.81,1026.71,652.49,1069.94,706.36Z" />
  <ellipse
     style="opacity:0.15"
     id="ellipse17"
     opacity="0.1"
     fill="#ffffff"
     ry="25.5"
     rx="510"
     cy="792.12"
     cx="573.35" />
  <path
     id="path67"
     opacity="0.1"
     fill="#ffffff"
     transform="translate(-27.15 -41.19)"
     d="M342,176.94a28.9,28.9,0,0,0-16.77,1.83,24.71,24.71,0,0,1-20.14-.05,28.26,28.26,0,0,0-23.68.46,14.64,14.64,0,0,1-6.82,1.71c-9.6,0-17.59-9.67-19.25-22.43a18.58,18.58,0,0,0,4.8-5.18c5.63-9.07,14.35-14.89,24.14-14.89s18.4,5.75,24,14.73a18.53,18.53,0,0,0,15.95,8.76h.25C332.11,161.88,338.73,168,342,176.94Z" />
  <path
     style="opacity:0.15"
     id="path69"
     opacity="0.1"
     fill="#ffffff"
     transform="translate(-27.15 -41.19)"
     d="M371.2,136.89l-15.52,9.85,9.42-17.14a15.4,15.4,0,0,0-9.39-3.35h-.25a18.16,18.16,0,0,1-3.22-.23L347,129.35l2.26-4.1a18.68,18.68,0,0,1-9.2-7l-9.42,6,5.95-10.81c-5.51-6.61-12.93-10.67-21.09-10.67-9.79,0-18.51,5.83-24.14,14.9a18,18,0,0,1-16,8.6h-.53c-10.81,0-19.57,12.26-19.57,27.37S264,181,274.85,181a14.72,14.72,0,0,0,6.82-1.7,28.22,28.22,0,0,1,23.68-.47,24.71,24.71,0,0,0,20.14.05,28.29,28.29,0,0,1,23.48.45,14.65,14.65,0,0,0,6.74,1.67c10.81,0,19.57-12.25,19.57-27.37A34.76,34.76,0,0,0,371.2,136.89Z" />
  <path
     id="path71"
     fill="#3f3d56"
     transform="translate(-27.15 -41.19)"
     d="M885.5,710.11v8a30,30,0,1,0,60,0v-8a30,30,0,0,0-60,0Z" />
  <path
     id="path73"
     fill="#3f3d56"
     transform="translate(-27.15 -41.19)"
     d="M945.5,582.11v-8a30,30,0,0,0-60,0v8a29.63,29.63,0,0,0,1.29,8.67,30,30,0,0,0,58.71-8.67Z" />
  <path
     id="path75"
     fill="#3f3d56"
     transform="translate(-27.15 -41.19)"
     d="M885.5,642.11v8a30,30,0,1,0,60,0v-8a30,30,0,0,0-60,0Z" />
  <path
     id="path77"
     fill="#3f3d56"
     transform="translate(-27.15 -41.19)"
     d="M915.5,748.11a30.09,30.09,0,0,0-30,30v8a30,30,0,1,0,60,0v-8A30.09,30.09,0,0,0,915.5,748.11Z" />
  <path
     id="path79"
     opacity="0.1"
     transform="translate(-27.15 -41.19)"
     d="M945.5,574.88v7.23a30,30,0,0,1-58.71,8.67Z" />
  <path
     id="path81"
     opacity="0.1"
     transform="translate(-27.15 -41.19)"
     d="M945.5,642.88v7.23a30,30,0,0,1-58.71,8.67Z" />
  <path
     id="path83"
     opacity="0.1"
     transform="translate(-27.15 -41.19)"
     d="M945.5,710.88v7.23a30,30,0,0,1-58.71,8.67Z" />
  <path
     id="path85"
     opacity="0.1"
     transform="translate(-27.15 -41.19)"
     d="M945.5,778.88v7.23a30,30,0,0,1-58.71,8.67Z" />
  <path
     id="path87"
     fill="#3f3d56"
     transform="translate(-27.15 -41.19)"
     d="M1008.13,650.62l-2.39,1.85A11.33,11.33,0,0,1,989.6,636.9a11.2,11.2,0,0,1,2.29-2.38l2.4-1.85a11.33,11.33,0,0,1,13.84,18Z" />
  <path
     id="path89"
     fill="#3f3d56"
     transform="translate(-27.15 -41.19)"
     d="M973.94,648.36l-2.39,1.85a11.34,11.34,0,0,0,13.85,17.95l2.39-1.85a11.34,11.34,0,0,0-13.85-17.95Z" />
  <path
     id="path91"
     fill="#3f3d56"
     transform="translate(-27.15 -41.19)"
     d="M953.6,664.06l-2.39,1.84a11.34,11.34,0,0,0,13.85,18l2.39-1.84a11.34,11.34,0,1,0-13.85-18Z" />
  <path
     id="path93"
     fill="#3f3d56"
     transform="translate(-27.15 -41.19)"
     d="M933.26,679.75l-2.39,1.85a11.33,11.33,0,0,0,13.84,17.95l2.4-1.85a11.34,11.34,0,1,0-13.85-18Z" />
  <path
     id="path95"
     opacity="0.1"
     transform="translate(-27.15 -41.19)"
     d="M1007.9,650.8l-2.16,1.67A11.33,11.33,0,0,1,989.6,636.9Z" />
  <path
     id="path97"
     opacity="0.1"
     transform="translate(-27.15 -41.19)"
     d="M987.56,666.49l-2.16,1.67a11.33,11.33,0,0,1-16.14-15.56Z" />
  <path
     id="path99"
     opacity="0.1"
     transform="translate(-27.15 -41.19)"
     d="M967.22,682.18l-2.16,1.67a11.33,11.33,0,0,1-16.15-15.56Z" />
  <path
     id="path101"
     fill="#ffffff"
     transform="translate(-27.15 -41.19)"
     d="M997.5,278.11a34,34,0,0,1,0,68,34,34,0,0,1,0,68,34,34,0,0,1,0,68,34,34,0,0,1,0,68h-164a34,34,0,0,1,0-68,34,34,0,0,1,0-68,34,34,0,0,1,0-68,34,34,0,0,1,0-68,34,34,0,0,1,0-68,34,34,0,0,1,0-68H841c4.31-29.25,37.36-52,77.51-52s73.2,22.75,77.51,52h1.49a34,34,0,0,1,0,68,34,34,0,0,1,0,68Z" />
  <path
     id="path103"
     opacity="0.1"
     transform="translate(-27.15 -41.19)"
     d="M1031.5,176.11a34.1,34.1,0,0,1-34,34h-164l163-68h1A34.1,34.1,0,0,1,1031.5,176.11Z" />
  <path
     id="path105"
     opacity="0.1"
     transform="translate(-27.15 -41.19)"
     d="M800.5,244.11a34.1,34.1,0,0,0,34,34h164l-163-68h-1A34.1,34.1,0,0,0,800.5,244.11Z" />
  <path
     id="path107"
     opacity="0.1"
     transform="translate(-27.15 -41.19)"
     d="M800.5,380.11a34.1,34.1,0,0,0,34,34h164l-163-68h-1A34.1,34.1,0,0,0,800.5,380.11Z" />
  <path
     id="path109"
     opacity="0.1"
     transform="translate(-27.15 -41.19)"
     d="M800.5,516.11a34.1,34.1,0,0,0,34,34h164l-163-68h-1A34.1,34.1,0,0,0,800.5,516.11Z" />
  <path
     id="path111"
     opacity="0.1"
     transform="translate(-27.15 -41.19)"
     d="M1031.5,312.11a34.1,34.1,0,0,1-34,34h-164l163-68h1A34.1,34.1,0,0,1,1031.5,312.11Z" />
  <path
     id="path113"
     opacity="0.1"
     transform="translate(-27.15 -41.19)"
     d="M1031.5,448.11a34.1,34.1,0,0,1-34,34h-164l163-68h1A34.1,34.1,0,0,1,1031.5,448.11Z" />
  <path
     id="path115"
     fill="#ffffff"
     transform="translate(-27.15 -41.19)"
     d="M1012.71,685.71l-54-29.07a12.71,12.71,0,0,1,12-22.39,12.72,12.72,0,1,1,12.06-22.39l2.46,1.32c6.61-8.86,21.52-10.5,34.75-3.38s20.07,20.47,16.3,30.86l.49.27a12.71,12.71,0,1,1-12,22.39,12.72,12.72,0,0,1-12.06,22.39Z" />
  <path
     id="path117"
     opacity="0.1"
     transform="translate(-27.15 -41.19)"
     d="M1042,658.15a12.75,12.75,0,0,1-17.22,5.17l-54-29.07,65.73,6.5.33.18A12.75,12.75,0,0,1,1042,658.15Z" />
  <path
     id="path119"
     opacity="0.1"
     transform="translate(-27.15 -41.19)"
     d="M953.87,639.59A12.76,12.76,0,0,0,959,656.82l54,29.07L971.42,634.6l-.33-.18A12.76,12.76,0,0,0,953.87,639.59Z" />
  <path
     id="path121"
     fill="#ffffff"
     transform="translate(-27.15 -41.19)"
     d="M369.3,814.24l-80.64.08a16.72,16.72,0,0,1,0-33.44,16.72,16.72,0,1,1,0-33.43h3.69c2.1-14.38,18.34-25.58,38.08-25.6s36,11.15,38.14,25.53h.73a16.72,16.72,0,1,1,0,33.43,16.72,16.72,0,0,1,0,33.44Z" />
  <path
     id="path123"
     opacity="0.1"
     transform="translate(-27.15 -41.19)"
     d="M386,764.07a16.76,16.76,0,0,1-16.7,16.73l-80.64.08,80.11-33.51h.49A16.77,16.77,0,0,1,386,764.07Z" />
  <path
     id="path125"
     opacity="0.1"
     transform="translate(-27.15 -41.19)"
     d="M272.42,797.62a16.77,16.77,0,0,0,16.73,16.7l80.64-.08-80.18-33.36h-.49A16.76,16.76,0,0,0,272.42,797.62Z" />
  <path
     id="path127"
     opacity="0.1"
     fill="#ffffff"
     transform="translate(-27.15 -41.19)"
     d="M654,266.42a20.32,20.32,0,0,0-11.74,1.28,17.27,17.27,0,0,1-14.1,0,19.8,19.8,0,0,0-16.58.32,10.29,10.29,0,0,1-4.77,1.2c-6.72,0-12.31-6.77-13.47-15.71a12.94,12.94,0,0,0,3.36-3.62c3.94-6.35,10-10.42,16.89-10.42s12.89,4,16.83,10.31a13,13,0,0,0,11.16,6.13h.18C647.06,255.88,651.69,260.17,654,266.42Z" />
  <path
     style="opacity:0.15"
     id="path129"
     opacity="0.1"
     fill="#ffffff"
     transform="translate(-27.15 -41.19)"
     d="M674.42,238.39l-10.86,6.89,6.59-12a10.69,10.69,0,0,0-6.57-2.35h-.17a12,12,0,0,1-2.25-.16l-3.69,2.33,1.58-2.87a13.13,13.13,0,0,1-6.44-4.89L646,229.53l4.16-7.57c-3.85-4.62-9-7.46-14.76-7.46-6.85,0-13,4.07-16.9,10.42a12.65,12.65,0,0,1-11.17,6H607c-7.56,0-13.7,8.58-13.7,19.16s6.14,19.16,13.7,19.16a10.17,10.17,0,0,0,4.77-1.2,19.8,19.8,0,0,1,16.58-.32,17.5,17.5,0,0,0,7.09,1.52,17.29,17.29,0,0,0,7-1.49,19.79,19.79,0,0,1,16.43.32,10.24,10.24,0,0,0,4.72,1.17c7.57,0,13.7-8.58,13.7-19.16A24.35,24.35,0,0,0,674.42,238.39Z" />
  <path
     id="path131"
     opacity="0.1"
     fill="#ffffff"
     transform="translate(-27.15 -41.19)"
     d="M438.62,327.42a20.32,20.32,0,0,1,11.74,1.28,17.24,17.24,0,0,0,14.09,0A19.8,19.8,0,0,1,481,329a10.32,10.32,0,0,0,4.77,1.2c6.72,0,12.32-6.77,13.48-15.71a12.79,12.79,0,0,1-3.36-3.62c-3.94-6.35-10.05-10.42-16.9-10.42s-12.88,4-16.82,10.31A13,13,0,0,1,451,316.88h-.17C445.51,316.88,440.87,321.17,438.62,327.42Z" />
  <path
     style="opacity:0.15"
     id="path133"
     opacity="0.1"
     fill="#ffffff"
     transform="translate(-27.15 -41.19)"
     d="M418.14,299.39,429,306.28l-6.6-12a10.71,10.71,0,0,1,6.57-2.35h.18a12,12,0,0,0,2.25-.16l3.68,2.33-1.58-2.87a13.15,13.15,0,0,0,6.45-4.89l6.59,4.18L442.38,283c3.86-4.62,9.05-7.46,14.77-7.46,6.85,0,13,4.07,16.9,10.42a12.64,12.64,0,0,0,11.17,6h.36c7.57,0,13.7,8.58,13.7,19.16s-6.13,19.16-13.7,19.16a10.23,10.23,0,0,1-4.77-1.2,19.8,19.8,0,0,0-16.58-.32,17.45,17.45,0,0,1-7.08,1.52,17.22,17.22,0,0,1-7-1.49,19.81,19.81,0,0,0-16.44.32,10.21,10.21,0,0,1-4.72,1.17c-7.56,0-13.7-8.58-13.7-19.16A24.35,24.35,0,0,1,418.14,299.39Z" />
  <path
     style="fill:#ffffff;fill-opacity:1;fill-rule:nonzero;stroke:none"
     d="m 519.94048,572.67077 0.32,86.63936 70.95947,-67.7595 0.88,87.27936 65.59951,-104.47923 z"
     id="path954" />
  <path
     style="fill:none;stroke:#000000;stroke-width:3.99997044px;stroke-linecap:butt;stroke-linejoin:miter;stroke-miterlimit:4;stroke-dasharray:none;stroke-opacity:1"
     d="m 518.58049,572.99077 c 0,0 1.75999,0 2.71998,0 14.87989,0.08 137.43899,0.56 135.759,0.16 -1.75999,-0.48 -65.83952,18.39986 -65.83952,18.39986 z"
     id="path956" />
  <path
     style="fill:none;stroke:#000000;stroke-width:3.99997044px;stroke-linecap:butt;stroke-linejoin:miter;stroke-miterlimit:4;stroke-dasharray:none;stroke-opacity:1"
     d="m 519.94048,572.67077 0.32,86.63936 71.27947,20.07986 64.95952,-19.27986 0.32,-82.47939 -63.03953,99.19926 -2.79998,0.8 -0.08,-84.55938 -1.43999,-0.08 -68.3195,67.6795"
     id="path958" />
  <path
     style="fill:#000000;fill-opacity:1;fill-rule:nonzero;stroke:none;stroke-opacity:1;stroke-linecap:round;stroke-linejoin:round"
     d="m 584.5,561.39086 h 12.79991 v 29.51978 H 584.5 Z"
     id="path960" />
  <path
     style="fill:#000000;fill-opacity:1;fill-rule:nonzero;stroke:none"
     d="m 584.98,677.47 h 11.83991 V 791.70915 H 584.98 Z"
     id="path962" />
</svg>
