<svg xmlns="http://www.w3.org/2000/svg" xmlns:xlink="http://www.w3.org/1999/xlink" width="458" height="500" fill="none" xmlns:v="https://vecta.io/nano"><style><![CDATA[.B{fill:#e3d6e5}.C{fill:#c1b1c4}.D{fill:#f0e7f2}.E{fill:#bc06df}.F{fill:#b1b4c4}.G{fill:#d6d8e5}.H{fill:#232733}.I{fill:#ffcea9}.J{fill:#e5e5e5}.K{fill:#f4f4f4}.L{fill:#a202c4}]]></style><g clip-path="url(#A)"><path opacity=".4" d="M310.52 385.65L262.7 358c-3.45-2-3-5.47 1-7.77l31-17.9L355 367.2l-31 17.9c-4 2.3-10 2.54-13.48.55z" class="B"/><path d="M314.84 383.12L267 355.5c-3.44-2-3-5.47 1-7.77l31-17.9 60.32 34.83-31 17.9c-4 2.3-10.03 2.54-13.48.55z" class="C"/><g class="F"><path d="M359.28 364.68v-1.83l-2.8 1.6 2.8.22zm-94.58-12.46v-1.86l2.86 1.2-2.86.67z"/></g><path d="M314.84 381.3L267 353.68c-3.44-2-3-5.46 1-7.76L299 328l60.32 34.82-31 17.9c-4 2.3-10.03 2.58-13.48.6z" class="B"/><g fill="#9ea1af"><path d="M299.13 328.1l-7.47-24.76 60.97 34.97 6.65 24.53-60.15-34.74z"/><path d="M357.5 363.87l1.77-1-2.63-2.1.86 3.1z"/></g><g class="C"><path d="M297.2 329.04l-7.46-24.76 60.97 34.97 6.8 24.62-60.3-34.83z"/><path d="M452 405.6L216 269.35c-3.3-1.9-6-7-6-11.46V75.33c0-4.4 2.68-6.44 6-4.53l236 136.26c3.3 1.9 6 7 6 11.45v182.57c0 4.4-2.7 6.44-6 4.53z"/></g><g class="F"><path d="M453.2 407.5l2.62-1.5-1.13-7.75-1.5 9.26zM209.55 71.93l2.58-1.5 3.7 2.1-4 .58c-.06-.02-2.28-1.2-2.28-1.2z"/></g><path d="M449.82 406.86l-236-136.26c-3.3-1.9-6-7-6-11.46V76.58c0-4.4 2.7-6.44 6-4.53l236 136.26c3.3 1.9 6 7 6 11.45v182.57c-.01 4.4-2.7 6.44-6 4.53z" fill="#e4e7f2"/><path d="M449.4 407.1l-236-136.26c-3.3-1.9-6-7-6-11.45V76.82c0-4.4 2.68-6.44 6-4.53l236 136.26c3.3 1.9 6 7 6 11.45v182.56c0 4.44-2.7 6.44-6 4.53z" class="B"/><path d="M452.15 396L210.4 256.42l.13-178.87c0-1.83 1.3-2.57 2.87-1.66l236 136.26c.84.548 1.536 1.287 2.035 2.156s.785 1.843.835 2.844l-.1 178.85z" fill="#fff"/><g fill="#f1e9f2"><path d="M437.18 240.5l-214.3-123.72c-.742-.532-1.35-1.23-1.773-2.04a5.87 5.87 0 0 1-.667-2.62V96.65c0-1.8 1.1-2.62 2.44-1.84l214.3 123.72c.744.533 1.352 1.234 1.775 2.045s.652 1.7.665 2.625v15.46c0 1.8-1.1 2.62-2.44 1.84zM426 281.9l-50.37-29.08c-.742-.532-1.35-1.23-1.773-2.04a5.87 5.87 0 0 1-.667-2.62v-32.5c0-1.8 1.1-2.62 2.44-1.84L426 242.9a5.81 5.81 0 0 1 1.775 2.04 5.83 5.83 0 0 1 .665 2.621v32.5c-.04 1.8-1.13 2.62-2.44 1.84zm-66.4 10.57l-126.36-73a2.9 2.9 0 0 1-.89-1.019c-.212-.405-.325-.854-.33-1.3v-5.6c0-.9.54-1.32 1.22-.93l126.36 73a2.93 2.93 0 0 1 .886 1.02c.212.405.326.853.334 1.3v5.6c0 .9-.55 1.3-1.22.92zm-12.43 6.06L233.6 233a2.95 2.95 0 0 1-.885-1.021 2.93 2.93 0 0 1-.335-1.309v-2.8c0-.9.55-1.3 1.22-.92l113.56 65.56a2.93 2.93 0 0 1 .886 1.02c.212.405.326.853.334 1.3v2.78c0 .87-.55 1.3-1.22.9zm0 10.57L233.6 243.53a2.93 2.93 0 0 1-.886-1.02c-.212-.405-.326-.853-.334-1.3v-2.8c0-.9.55-1.3 1.22-.92l113.56 65.56a2.93 2.93 0 0 1 .886 1.02c.212.405.326.853.334 1.3v2.8c0 .9-.55 1.3-1.22.92zm-29.03-6.2l-84.53-48.8a2.93 2.93 0 0 1-.886-1.02c-.212-.405-.326-.853-.334-1.3V249c0-.9.55-1.3 1.22-.93l84.53 48.8c.368.27.67.623.88 1.03a3.01 3.01 0 0 1 .339 1.311v2.8c0 .87-.55 1.28-1.22.9zm109.04-7.47l-52.8-30.5c-.373-.265-.677-.614-.9-1.02a2.87 2.87 0 0 1-.33-1.31v-2.8c0-.9.54-1.3 1.22-.92l52.8 30.5a2.93 2.93 0 0 1 .886 1.02c.212.405.326.853.334 1.3v2.8c0 .9-.55 1.3-1.22.92zm0 10.57l-52.8-30.5c-.373-.265-.677-.614-.9-1.02a2.87 2.87 0 0 1-.33-1.31v-2.78c0-.9.54-1.32 1.22-.93l52.8 30.54c.372.265.676.615.888 1.02a2.91 2.91 0 0 1 .332 1.311v2.78c0 .9-.55 1.27-1.22.9zm-13.83 2.57l-39-22.5c-.373-.265-.677-.614-.9-1.02a2.87 2.87 0 0 1-.33-1.31V281c0-.9.54-1.3 1.22-.92l39 22.5c.37.266.675.615.887 1.02a2.92 2.92 0 0 1 .333 1.31v2.8c0 .85-.57 1.3-1.22.87zM426 363.3l-50.37-29.08c-.742-.532-1.35-1.23-1.773-2.04a5.87 5.87 0 0 1-.667-2.62v-32.5c0-1.8 1.1-2.62 2.44-1.84L426 324.3a5.86 5.86 0 0 1 1.76 2.064 5.85 5.85 0 0 1 .64 2.636v32.5c0 1.75-1.1 2.58-2.4 1.8zm1.18 13.53l-52.8-30.5c-.373-.265-.677-.614-.9-1.02a2.87 2.87 0 0 1-.33-1.31v-2.78c0-.9.54-1.32 1.22-.93l52.8 30.5c.368.27.67.623.88 1.03a3.01 3.01 0 0 1 .339 1.311v2.78c0 .9-.55 1.3-1.22.92z"/></g><g fill="#e3dae5"><path d="M233.58 115.736c1.832-1.058 1.83-4.5-.003-7.666s-4.805-4.893-6.637-3.835-1.83 4.5.003 7.665 4.805 4.893 6.637 3.836zm108.1 60.614l-18.54-10.7a1.47 1.47 0 0 1-.444-.513 1.46 1.46 0 0 1-.166-.657V162c0-.45.27-.66.6-.46l18.54 10.7c.187.13.34.304.445.506a1.42 1.42 0 0 1 .165.654v2.46c0 .48-.3.7-.6.5zm30 17.33L353.14 183c-.185-.133-.337-.306-.443-.508a1.46 1.46 0 0 1-.167-.652v-2.46c0-.45.28-.66.6-.46l18.54 10.7a1.45 1.45 0 0 1 .443.513c.106.203.163.428.167.657v2.46c0 .4-.3.62-.6.43zm29.52 17.04L382.66 200a1.43 1.43 0 0 1-.446-.506c-.106-.202-.162-.426-.164-.654v-2.46c0-.45.27-.65.6-.46l18.54 10.7a1.46 1.46 0 0 1 .443.513c.106.203.163.428.167.657v2.46c0 .46-.27.66-.6.47zm30 17.28l-18.53-10.7a1.47 1.47 0 0 1-.444-.513 1.46 1.46 0 0 1-.166-.657v-2.46c0-.45.27-.65.6-.46L431.2 224a1.44 1.44 0 0 1 .446.506c.106.202.162.426.164.654v2.46c0 .38-.27.62-.6.38zm-40.92 18.9l-3.54-9.1-6.43 9.16 25.82 14.9-9.38-24.17-6.47 9.2zm30.732 6.616c1.657-.953 1.665-4.05.016-6.92s-4.33-4.422-5.986-3.47-1.665 4.05-.017 6.92 4.33 4.422 5.987 3.47zM390.64 329.5l-3.53-9.1-6.44 9.16 12.88 7.43 12.95 7.48-9.38-24.17-6.48 9.2zm29.087 5.618c1.65-.953 1.652-4.04.003-6.895s-4.323-4.398-5.973-3.446-1.65 4.04-.002 6.896 4.322 4.397 5.972 3.445z"/></g><g class="H"><path d="M271.68 205.33L267 224.07v-16.04l4.68-2.7zm-54.5-31.77l-4.68 18.75v-16.04l4.68-2.7z"/></g><path d="M294.14 289.83L182.72 225.5a5.23 5.23 0 0 1-1.588-1.83 5.24 5.24 0 0 1-.592-2.35v-57c0-1.6 1-2.35 2.18-1.65L294.14 227c.667.474 1.213 1.1 1.593 1.823a5.21 5.21 0 0 1 .597 2.347v57.05c0 1.57-.98 2.3-2.2 1.6z" fill="#f1e9f2"/><g class="E"><path d="M213.73 223l-6.04-15.57-11 15.65 44.15 25.5-16.04-41.33L213.73 223zm62.223 16.788c2.817-1.626 2.815-6.903-.004-11.787s-7.4-7.523-10.206-5.897-2.815 6.904.004 11.787 7.4 7.524 10.206 5.897z"/></g><path d="M264.95 201.44l-.01-21.38-6.06-4.55v25.93l-6.74 3.9 9.77 5.64 9.77-5.64-6.73-3.9z" fill="#353c4c"/><path d="M261.9 210.97l5.1 13.1v-16.04l-5.1 2.94z" class="H"/><path d="M252.14 205.33l4.33 12.58 10.53 6.16-5.1-13.1-9.77-5.64z" fill="#2b303f"/><path d="M210.43 169.68v-25.94h-6.06v25.93l-6.74 3.9 9.77 5.65 9.77-5.65-6.74-3.88z" fill="#353c4c"/><path d="M207.4 179.2l5.1 13.1v-16.04l-5.1 2.94z" class="H"/><path d="M197.63 173.56l4.33 12.58 10.53 6.17-5.1-13.1-9.77-5.65z" fill="#2b303f"/><path opacity=".4" d="M143.77 290.74L83.4 255.72l-72.73 42 65.07 37.74 72.74-42v-5.44l-4.72 2.72z" class="B"/><path d="M151.43 286.02L83.4 246.75 15.4 286.02l-4.7-2.72v5.44l72.73 42 72.73-42v-5.44l-4.7 2.72z" class="C"/><path d="M83.4 325.3l-72.73-42 72.73-42 72.73 42-72.73 42z" class="D"/><path d="M83.18 267.75l4.75-2.74V62.2l-4.75 2.74v202.8z" class="F"/><path d="M83.56 147.7l33.2 52.56 4.75-1.94-33.6-53.08-4.37 2.46z" class="C"/><path d="M83.36 157.04l33.23 52.82v-9.88l-33.23-52.63v9.7z" class="B"/><path d="M78.6 265l4.75 2.74V64.94L78.6 62.2V265z" class="G"/><path d="M116.6 286.94l4.75 2.74V86.87l-4.75-2.74v202.8z" class="B"/><path d="M121.16 289.68l4.75-2.74V84.13l-4.75 2.74v202.8z" class="C"/><path d="M83.36 253.13l33.23-39.8v-9.54l-33.23 39.85v9.48z" class="B"/><path d="M83.36 253.13l4.57-2.5 28.66-34.55v-3.48l-33.23 40.53z" class="C"/><path d="M83.36 147.7l33.23-39.8v-9.54L83.36 138.2v9.48z" class="G"/><path d="M83.36 147.7l4.57-2.5 28.66-34.54v-3.48L83.36 147.7z" class="F"/><g class="C"><path d="M45.48 289.65l4.75-2.74V84.1l-4.75 2.74v202.8z"/><path d="M45.86 169.6l33.2 52.55 4.75-1.93-33.6-53.08-4.37 2.46z"/></g><g class="B"><path d="M45.66 178.94l33.23 52.8v-9.87l-33.23-52.64v9.7z"/><path d="M40.92 286.9l4.74 2.74V86.84l-4.74-2.74v202.8zm37.98 21.93l4.75 2.74v-202.8l-4.75-2.75v202.8z"/></g><path d="M83.46 311.57l4.75-2.74v-202.8l-4.75 2.75v202.8z" class="C"/><path d="M45.66 275.03l33.23-39.8v-9.55l-33.23 39.86v9.48z" class="B"/><path d="M45.66 275.03l4.57-2.5 28.66-34.54v-3.5l-33.23 40.54z" class="C"/><path d="M45.66 169.6l33.23-39.8v-9.55L45.66 160.1v9.5z" class="B"/><path d="M45.66 169.6l4.57-2.5 28.66-34.55v-3.48L45.66 169.6z" class="C"/><path d="M83.64 119.04L34.6 90.73l49.03-28.3 49.03 28.3-49.03 28.3z" fill="#f7dc6b"/><path d="M80 37.9L21.86 71.47l-16.64-9.6L63.35 28.3 80 37.9z" fill="#48354c"/><path d="M5.22 75.32V61.86l16.64 9.6v13.46l-16.64-9.6z" fill="#3c2b3f"/><path d="M21.86 84.93L80 51.37V37.9L21.86 71.47v12.15" fill="#302333"/><path d="M80 22.8L21.86 56.37l-16.64-9.6L63.35 13.2 80 22.8z" fill="#48354c"/><path d="M5.22 60.23V46.76l16.64 9.6v13.47l-16.64-9.6z" fill="#3c2b3f"/><path d="M21.86 69.84L80 36.28V22.8L21.86 56.37v12.16" fill="#302333"/><path d="M36.05 64.55L0 43.87v-7.54l36.05 20.55v7.67z" class="B"/><path d="M88.2 86.82L0 36.33l6.53-3.77 88.2 50.5-6.53 3.77z" class="D"/><path d="M75.7 52.63l-45.3-26.2v-7.55l45.3 24.27v9.48z" class="B"/><path d="M110.06 64.1L30.42 18.9l6.53-3.77 79.64 45.2-6.53 3.77z" class="D"/><path d="M54.55 32.8v7.54l3.1 21.7 4.6 2.86-7.7-32.1z" class="G"/><path d="M68.18 68.13l-5.96-30.9-7.67-4.43 4.65 30.45 8.98 4.88z" fill="#e7e9f2"/><use xlink:href="#B" class="C"/><g class="D"><path d="M54.55 32.8l-33.13 8.42-7.12-4.1 33.4-8.53 6.86 4.22z"/><path d="M83.64 56.62L34.6 28.3 83.64 0l49.03 28.3-49.03 28.3z"/></g><path d="M34.6 115.73V28.3l49.03 28.3v87.42l-49.03-28.3z" class="B"/><path d="M132.67 28.3v87.42l-49.03 28.3V56.6l49.03-28.3z" class="C"/><path d="M83.64 87.07L55.5 70.82l-9.05-28.8 37.2 21.48v23.57z" fill="#d53df5"/><path d="M132.67 35.2v23.57L83.64 87.08V63.5l49.03-28.32z" class="E"/><path d="M302.27 219.27L90.12 96.78v-7.54l212.15 122.5v7.54z" class="B"/><path d="M302.27 211.73L90.12 89.25l6.53-3.77L308.8 207.96l-6.53 3.77z" class="D"/><path d="M332.7 201.83L120.54 79.34V71.8L332.7 194.3v7.54z" class="B"/><path d="M332.7 194.3L120.54 71.8l6.53-3.77 212.15 122.5-6.53 3.77z" class="D"/><path d="M339.22 198.08l-36.95 21.2v-7.55l36.95-21.18v7.54z" class="C"/><path d="M339.22 190.54l-36.93 21.2-5.53-3.2 36.93-21.2 5.53 3.2z" class="D"/><path d="M306.1 186.46l-23.8 6.27-12.22-7.06 34.97-7.37 1.05.62v7.54z" class="C"/><path d="M306.1 178.92l-33.13 8.42-7.12-4.12 33.38-8.52 6.87 4.22z" class="D"/><path d="M252.4 147.96v7.54l3.1 21.7 4.6 2.85-7.7-32.1z" class="B"/><path d="M266.04 183.3l-5.96-30.9-7.67-4.43 4.66 30.45 8.97 4.88z" class="D"/><path d="M252.4 155.5l-23.8 6.27-12.22-7.06 34.97-7.37 1.04.62v7.54z" class="C"/><path d="M252.4 147.96l-33.12 8.42-7.12-4.1 33.38-8.53 6.86 4.22z" class="D"/><path d="M198.54 116.83v7.54l3.1 21.7 4.6 2.86-7.7-32.1z" class="B"/><path d="M212.17 152.16l-5.96-30.9-7.67-4.43 4.65 30.45 8.98 4.88z" class="D"/><path d="M198.54 124.37l-23.8 6.27-12.22-7.06 34.97-7.37 1.04.62v7.54z" class="C"/><path d="M198.54 116.83l-33.13 8.42-7.12-4.1 33.4-8.53 6.86 4.22z" class="D"/><path d="M144.67 85.72v7.54l3.1 21.7 4.6 2.85-7.7-32.1z" class="B"/><path d="M158.3 121.05l-5.95-30.9-7.67-4.43 4.65 30.45 8.97 4.88z" class="D"/><path d="M144.67 93.26l-23.8 6.27-12.22-7.06 34.97-7.37 1.04.62v7.54z" class="C"/><path d="M144.67 85.72l-33.13 8.42-7.12-4.1 33.38-8.53 6.87 4.22z" class="D"/><g class="B"><path opacity=".4" d="M94.17 500l-27.82-15.92L108 460.25l27.82 15.9L94.17 500z"/><path d="M94.75 467.9L71.7 454.6l23.04-13.3 23.04 13.3-23.04 13.3z"/></g><path d="M94.75 494.52L71.7 481.2v-26.6l23.04 13.3v26.6z" class="C"/><path d="M117.8 481.2l-23.04 13.3v-26.6l23.04-13.3v26.6z" fill="#d3c4d6"/><path d="M125.72 472.84a7.83 7.83 0 0 0 5.93-.72c1.43 0 9.2-3.28 10.25-.5.92 2.45-2.44 4.7-4.24 5.14-3.92 1-6.82 2.9-8.4 3.24-1.17.25-2.7.4-3.63-.5-1.12-1.1-1.02-5.2.08-6.66z" fill="#45184e"/><path d="M129.27 479.33c1.57-.33 4.47-2.28 8.4-3.23 1.5-.37 4.1-2 4.36-4 .35 2.25-2.68 4.25-4.36 4.65-3.92 1-6.82 2.9-8.4 3.24-1.17.25-2.7.4-3.63-.5-.237-.272-.41-.593-.5-.94.58.446 1.257.75 1.976.886s1.46.105 2.164-.096h0z" class="E"/><path d="M111.72 465.4c1.997.554 4.133.295 5.94-.72 1.43 0 9.2-3.28 10.24-.5.93 2.45-2.43 4.7-4.23 5.14-3.92.95-6.82 2.9-8.4 3.24-1.17.25-2.7.4-3.62-.5-1.12-1.1-1.03-5.2.07-6.66z" fill="#45184e"/><g class="E"><path d="M115.27 471.88c1.58-.33 4.48-2.28 8.4-3.23 1.5-.37 4.1-2 4.36-4 .35 2.25-2.7 4.25-4.36 4.65-3.92.95-6.82 2.9-8.4 3.24-1.17.25-2.7.4-3.62-.5a2.34 2.34 0 0 1-.52-.94 4.7 4.7 0 0 0 4.14.79z"/><path d="M89.93 455.73c6 2.66 11.76 3.08 16.43.57l4.82-2.78.56 12.2s3.7 2.8 6.58.3l1.2-17.32 5.06-2.92c-.122.457-.19.927-.2 1.4 0 1.64 1.17 25.9 1.17 25.9s3.73 2.22 6.6-.28l2.38-32.6c.5-5.05-5.1-7.54-8.65-6.24-.83.3-2.86 1.05-5.43 2l.26-3.12c.5-5.06-5.1-7.55-8.65-6.25L87 436a54.54 54.54 0 0 0 .77 6.25l-8.62-.72c-.52 8.07 4.74 11.54 10.78 14.2zm15.07-14l5.77-3.33a6.76 6.76 0 0 0-.19 1.24l-5.58 2.1z"/></g><path d="M74.42 416.87s.7 10.73 2.12 12.28 6.17 2.6 6.17 2.6l3.66 6S83 418.6 82.3 418.14s-7.88-1.27-7.88-1.27z" class="I"/><path d="M81.47 405c-.89-.414-1.903-.487-2.844-.203s-1.744.905-2.256 1.743c-1.35 2.24-2.75 9.9-2.88 11.2 0 0 1.9 2.62 4.73 2.18L81.47 405z" fill="#ededed"/><path d="M82.76 405.1c1.86.1 3.24.57 3.47 0a23.87 23.87 0 0 0 .42-2.89l-.4-1.12c-2.32-1.43-3.06-4-3.37-6.88-.52-5 2.2-9.4 7.2-9.92 4.7-.5 8.17 2.82 9.1 7.36.5 2.25 1.5 6.5.15 10.18-.75 2.06-1.72 3.7-2.68 4a23.28 23.28 0 0 1-2.79-.25h0l-.42 2.28c-.17.9-.1 1.37 1.67 2.46s-2.7 3.35-5.6 3.13-6.2-2-7.1-3.87c-1-2.06-.9-4.57.36-4.48z" class="I"/><g class="J"><path d="M129.74 437.9c.002.265-.066.526-.198.756s-.322.42-.552.554l-14.13 8.16c-.23.133-.5.202-.755.202s-.525-.07-.755-.202l-19.82-11.44a1.5 1.5 0 0 1-.549-.549c-.132-.23-.2-.487-.2-.75v-.12l36.96 3.4z"/><path d="M129 439.22l-14.13 8.16a1.5 1.5 0 0 1-.76.2v-9.67h15.64c.002.265-.066.526-.198.756s-.322.42-.552.554h0z"/></g><path d="M114.63 446.64a1.06 1.06 0 0 1-1.06 0L93 434.75c-.27-.15-.27-.4 0-.55l15.16-8.76 21.6 12.47-15.13 8.73z" class="K"/><path d="M101.44 437.9l.1.06 6.6 3.8 3.62-2.1.1-.06-6.7-3.87-3.72 2.15z" fill="#bfbfbf"/><path d="M101.54 437.97l6.6 3.8 3.62-2.1-6.6-3.8-3.62 2.1z" class="J"/><g fill="#3a2c6d"><path d="M124.14 438.53l1 .55c.047.022.098.034.15.034s.103-.012.15-.034l.9-.53c.1-.05.1-.13 0-.17l-1-.55c-.046-.025-.098-.038-.15-.038s-.104.013-.15.038l-.9.52c-.06.06-.07.13 0 .18z"/><path d="M122.8 437.75l1 .55c.046.025.098.037.15.037s.104-.012.15-.037l.9-.53c.1-.05.1-.13 0-.17l-1-.55c-.046-.024-.098-.037-.15-.037s-.104.013-.15.037l-.9.53c-.07.05-.08.13 0 .17z"/><path d="M121.45 437l1 .55c.046.024.098.037.15.037s.104-.013.15-.037l.9-.52c.1-.06.1-.13 0-.18l-.95-.55c-.047-.022-.098-.034-.15-.034s-.103.012-.15.034l-.9.53c-.12.02-.13.1-.05.17z"/><path d="M120.1 436.2l1 .55a.38.38 0 0 0 .155.033c.054 0 .106-.01.155-.033l.9-.52c.1 0 .1-.13 0-.18l-1-.55c-.048-.025-.1-.037-.155-.037s-.107.012-.155.037l-.9.52c-.1.05-.1.13 0 .18z"/><path d="M118.75 435.42l1 .55c.046.025.098.037.15.037s.104-.012.15-.037l.9-.52c.1-.05.1-.13 0-.17l-1-.55c-.048-.025-.1-.037-.155-.037s-.107.012-.155.037l-.9.52c-.06.04-.07.12 0 .17z"/><path d="M117.4 434.64l1 .55c.047.022.098.034.15.034s.103-.012.15-.034l.9-.53c.1 0 .1-.13 0-.17l-1-.55c-.046-.025-.098-.037-.15-.037s-.104.012-.15.037l-.9.52c-.07.06-.08.13 0 .18z"/><path d="M116.06 433.86l1 .55c.046.024.098.037.15.037s.104-.013.15-.037l.9-.53c.1-.05.1-.13 0-.17l-.95-.55c-.046-.025-.098-.037-.15-.037s-.104.012-.15.037l-.9.53c-.1.05-.1.13-.05.17z"/><path d="M114.7 433.08l1 .55c.048.025.1.037.155.037s.107-.012.155-.037l.9-.52c.1-.06.1-.13 0-.18l-1-.55c-.048-.022-.1-.034-.155-.034a.38.38 0 0 0-.155.034l-.9.53c-.07.1-.08.1 0 .17z"/><path d="M113.36 432.3l1 .55a.37.37 0 0 0 .15.033.37.37 0 0 0 .15-.033l.9-.52c.1-.05.1-.13 0-.18l-1-.55c-.048-.025-.1-.037-.155-.037s-.107.012-.155.037l-.9.52c-.06.05-.07.13 0 .18z"/><path d="M112 431.53l1 .55c.046.025.098.037.15.037s.104-.012.15-.037l.9-.52c.1-.05.1-.13 0-.17l-1-.55c-.046-.024-.098-.037-.15-.037s-.104.013-.15.037l-.9.52c0 .04-.06.12 0 .17z"/><path d="M110.67 430.75l1 .55c.047.022.098.034.15.034s.103-.012.15-.034l.9-.53c.1-.05.1-.13 0-.17l-.95-.55c-.046-.024-.098-.037-.15-.037s-.104.013-.15.037l-.9.52c-.12.06-.13.13-.05.18z"/><path d="M109.32 430l1 .55c.048.024.1.037.155.037s.107-.013.155-.037l.9-.53c.1-.05.1-.13 0-.17l-1-.55c-.048-.025-.1-.038-.155-.038s-.107.013-.155.038l-.9.53c-.07.02-.08.1 0 .17z"/><path d="M108 429.2l1 .55c.046.024.098.037.15.037s.104-.013.15-.037l.9-.52c.1-.06.1-.13 0-.18l-1-.55a.36.36 0 0 0-.155-.034.36.36 0 0 0-.155.034l-.9.53c-.1.05-.1.13 0 .17z"/><path d="M106 428l1.6.93c.047.022.098.034.15.034s.103-.012.15-.034l.9-.52c.1-.05.1-.13 0-.18l-1.6-.92c-.046-.024-.098-.037-.15-.037s-.104.013-.15.037l-.9.53c-.1.08-.1.16 0 .16zm14.84 10.13l1 .55c.047.022.098.034.15.034s.103-.012.15-.034l.9-.53c.1-.05.1-.13 0-.17l-1-.55c-.046-.025-.098-.037-.15-.037s-.104.012-.15.037l-.9.52c-.07.05-.08.13 0 .18z"/><path d="M119.5 437.35l1 .55c.05.022.1.034.155.034a.38.38 0 0 0 .155-.034l.9-.53c.1-.05.1-.13 0-.17l-1-.55c-.046-.025-.098-.037-.15-.037s-.104.012-.15.037l-.9.53c-.07.05-.08.13 0 .17z"/><path d="M118.14 436.57l1 .55c.048.024.1.037.155.037s.107-.013.155-.037l.9-.53c.1-.05.1-.13 0-.17l-1-.55c-.046-.025-.098-.037-.15-.037s-.104.012-.15.037l-.9.53c-.07.05-.08.13 0 .17z"/><path d="M116.8 435.8l.95.55c.048.025.1.037.155.037s.107-.012.155-.037l.9-.53c.1-.05.1-.13 0-.17l-1-.55c-.046-.024-.098-.037-.15-.037s-.104.013-.15.037l-.9.53c-.02.05-.03.13.05.17z"/><path d="M115.45 435l1 .55a.38.38 0 0 0 .155.034c.054 0 .107-.012.155-.034l.9-.53c.1 0 .1-.13 0-.17l-1-.55c-.046-.024-.098-.037-.15-.037s-.104.013-.15.037l-.9.52c-.07.08-.08.18 0 .18z"/><path d="M114.1 434.24l1 .55a.38.38 0 0 0 .155.034c.054 0 .107-.012.155-.034l.9-.53c.1-.05.1-.13 0-.17l-1-.55c-.046-.024-.098-.037-.15-.037s-.104.013-.15.037l-.9.52c-.1.06-.1.13 0 .18z"/><path d="M112.75 433.46l1 .55c.05.022.1.034.155.034a.38.38 0 0 0 .155-.034l.9-.53c.1-.05.1-.13 0-.17l-1-.55c-.046-.025-.098-.037-.15-.037s-.104.012-.15.037l-.9.52c-.07.06-.08.13 0 .18z"/><path d="M111.4 432.68l.95.55c.05.022.1.034.155.034a.38.38 0 0 0 .155-.034l.9-.53c.08-.05.1-.13 0-.17l-1-.55c-.046-.025-.098-.037-.15-.037s-.104.012-.15.037l-.9.53c-.03.05-.04.13.04.17z"/><path d="M110.05 431.9l1 .55c.048.025.1.037.155.037s.107-.012.155-.037l.9-.53c.08-.05.1-.13 0-.17l-.95-.55c-.048-.025-.1-.037-.155-.037s-.107.012-.155.037l-.9.53c-.1.05-.1.13-.05.17z"/><path d="M108.7 431.12l1 .55c.048.025.1.037.155.037s.107-.012.155-.037l.9-.53c.1-.05.1-.13 0-.17l-1-.55c-.048-.022-.1-.034-.155-.034a.38.38 0 0 0-.155.034l-.9.53c-.07.05-.08.13 0 .17z"/><path d="M107.35 430.34l1 .55c.048.025.1.037.155.037s.107-.012.155-.037l.9-.52c.1-.06.1-.14 0-.18l-1-.55c-.05-.022-.1-.034-.155-.034s-.106.012-.155.034l-.9.53c-.07.05-.08.13 0 .17z"/><path d="M106 429.56l1 .55a.33.33 0 0 0 .155.037.33.33 0 0 0 .155-.037l.9-.52c.1-.06.1-.13 0-.18l-1-.55a.38.38 0 0 0-.155-.034c-.054 0-.106.012-.155.034l-.9.53c-.07.05-.08.13 0 .17zm16.2 9.34l1.6.92c.046.024.098.037.15.037s.104-.013.15-.037l.9-.52c.1-.06.1-.13 0-.18l-1.6-.92c-.046-.025-.098-.037-.15-.037s-.104.012-.15.037l-.9.52c-.07.06-.08.13 0 .18z"/><path d="M105.9 428.08l1 .55c.02 0 .042.008.057.023s.023.036.023.057-.008.042-.023.057-.036.023-.057.023l-1 .56a.34.34 0 0 1-.28 0l-.08-.05c-.04-.02-.085-.03-.13-.03a.31.31 0 0 0-.13.03l-1 .6a.34.34 0 0 1-.28 0l-.6-.35c-.08-.05-.08-.12 0-.16l1.2-.66.14-.1.14-.08.82-.47c.067-.027.143-.027.2 0zm13.02 13.46l1 .55c.046.024.098.037.15.037s.104-.013.15-.037l.9-.52c.1-.06.1-.13 0-.18l-.95-.55c-.047-.022-.098-.034-.15-.034s-.103.012-.15.034l-.9.53c-.12.05-.13.13-.05.17z"/><path d="M117.57 440.77l1 .55c.048.024.1.037.155.037s.107-.013.155-.037l.9-.52c.1 0 .1-.13 0-.18l-1-.54c-.046-.025-.098-.038-.15-.038s-.104.013-.15.038l-.9.52c-.07.04-.08.12 0 .17z"/><path d="M116.23 440l1 .55c.046.025.098.037.15.037s.104-.012.15-.037l.9-.53c.1-.05.1-.13 0-.17l-1-.55c-.046-.024-.098-.037-.15-.037s-.104.013-.15.037l-.9.53c-.07.04-.08.17 0 .17zm-11.45-6.62l1 .55c.046.024.098.037.15.037s.104-.013.15-.037l.9-.52c.1 0 .1-.13 0-.18l-1-.55a.33.33 0 0 0-.155-.037.33.33 0 0 0-.155.037l-.9.52c-.06.06-.07.14 0 .18z"/><path d="M103.44 432.6l1 .55a.38.38 0 0 0 .155.034c.054 0 .107-.012.155-.034l.9-.53c.1-.05.1-.13 0-.17l-1-.55c-.046-.025-.098-.037-.15-.037s-.104.012-.15.037l-.9.52c-.07.06-.08.13 0 .18z"/><path d="M102.1 431.83l1 .55c.046.024.098.037.15.037s.104-.013.15-.037l.9-.52c.1-.06.1-.13 0-.18l-1-.55c-.047-.022-.098-.034-.15-.034s-.103.012-.15.034l-.9.53c-.1.05-.1.13 0 .17z"/><path d="M100.75 431.06l1 .55c.046.024.098.037.15.037s.104-.013.15-.037l.9-.52c.1-.05.1-.13 0-.18l-1-.54a.33.33 0 0 0-.155-.037.33.33 0 0 0-.155.037l-.9.52c-.06.04-.07.1 0 .17zm13.8 7.94l1.3.74c.046.025.098.037.15.037s.104-.012.15-.037l.9-.52c.1-.05.1-.13 0-.18l-1.3-.75c-.046-.024-.098-.037-.15-.037s-.104.013-.15.037l-.9.52c-.07.08-.08.2 0 .2zm-8.4-4.84l1.3.75c.047.022.098.034.15.034s.103-.012.15-.034l.9-.53c.1-.05.1-.13 0-.17l-1.3-.75c-.046-.025-.098-.037-.15-.037s-.104.012-.15.037l-.9.53c-.07.01-.08.13 0 .17z"/><path d="M107.82 435.14l6.33 3.65c.047.022.098.034.15.034s.103-.012.15-.034l.9-.53c.1-.05.1-.13 0-.17l-6.33-3.66c-.046-.025-.098-.037-.15-.037s-.104.012-.15.037l-.9.52c-.07.05-.08.14 0 .2z"/><use xlink:href="#C"/><path d="M117.82 437.9l1 .55c.048.024.1.037.155.037s.107-.013.155-.037l.9-.52c.1-.05.1-.13 0-.18l-1-.55c-.046-.025-.098-.037-.15-.037s-.104.012-.15.037l-.9.52c-.07.06-.08.14 0 .18z"/><path d="M116.48 437.12l1 .55c.046.024.098.037.15.037s.104-.013.15-.037l.9-.52c.1-.05.1-.13 0-.17l-1-.55c-.046-.025-.098-.037-.15-.037s-.104.012-.15.037l-.9.52c-.07.05-.08.12 0 .17z"/><use xlink:href="#D"/><path d="M113.78 435.56l1 .55c.046.024.098.037.15.037s.104-.013.15-.037l.9-.52c.1-.06.1-.13 0-.18l-1-.55c-.05-.022-.1-.034-.155-.034s-.106.012-.155.034l-.9.53c-.05.05-.06.13.01.17z"/><path d="M112.44 434.8l1 .55c.046.024.098.037.15.037s.104-.013.15-.037l.9-.52c.1-.05.1-.13 0-.18l-1-.55c-.047-.022-.098-.034-.15-.034s-.103.012-.15.034l-.9.52c-.07.05-.08.13 0 .18z"/><path d="M111.1 434l1 .55c.05.022.1.034.155.034a.38.38 0 0 0 .155-.034l.9-.53c.1 0 .1-.13 0-.17l-1-.55c-.046-.024-.098-.037-.15-.037s-.104.013-.15.037l-.9.52c-.1.07-.1.18 0 .18z"/><path d="M109.75 433.23l1 .55c.046.024.098.037.15.037s.104-.013.15-.037l.9-.53c.1-.05.1-.13 0-.17l-1-.55c-.047-.022-.098-.034-.15-.034s-.103.012-.15.034l-.9.53c-.07.05-.08.13 0 .17z"/><path d="M108.4 432.45l.95.55c.046.024.098.037.15.037s.104-.013.15-.037l.9-.52c.1-.05.1-.13 0-.18l-1-.55c-.046-.025-.098-.037-.15-.037s-.104.012-.15.037l-.9.52c-.02.06-.03.14.05.18z"/><path d="M107.05 431.68l1 .55c.048.025.1.037.155.037s.107-.012.155-.037l.9-.52c.1-.05.1-.13 0-.17l-.95-.55c-.048-.025-.1-.037-.155-.037s-.107.012-.155.037l-.9.52c-.1.04-.1.12-.05.17z"/><path d="M105.7 430.9l1 .55c.046.024.098.037.15.037s.104-.013.15-.037l.9-.53c.1-.05.1-.13 0-.17l-1-.55c-.046-.025-.098-.037-.15-.037s-.104.012-.15.037l-.9.53c-.07.05-.08.13 0 .17z"/><path d="M104.36 430.12l1 .55a.33.33 0 0 0 .155.037.33.33 0 0 0 .155-.037l.9-.52c.1-.06.1-.13 0-.18l-1-.55c-.047-.022-.098-.034-.15-.034s-.103.012-.15.034l-.9.53c-.07.05-.08.13 0 .17zm16.14 9.33l2 1.14c.047.022.098.034.15.034s.103-.012.15-.034l.9-.52c.1-.05.1-.13 0-.18l-2-1.13a.33.33 0 0 0-.155-.037.33.33 0 0 0-.155.037l-.9.52c-.06.05-.07.12 0 .17zm-1.97.35l1 .55c.046.024.098.037.15.037s.104-.013.15-.037l.9-.53c.1-.05.1-.13 0-.17l-.95-.55c-.047-.022-.098-.034-.15-.034s-.103.012-.15.034l-.9.53c-.12.05-.13.13-.05.17z"/><path d="M117.18 439l1 .55c.046.024.098.037.15.037s.104-.013.15-.037l.9-.52c.1-.05.1-.13 0-.18l-1-.55c-.048-.025-.1-.038-.155-.038s-.107.013-.155.038l-.9.52c-.06.1-.07.18 0 .18z"/><path d="M115.84 438.26l1 .55c.046.025.098.037.15.037s.104-.012.15-.037l.9-.52c.1 0 .1-.13 0-.17l-1-.55c-.046-.024-.098-.037-.15-.037s-.104.013-.15.037l-.9.52c-.07.04-.08.12 0 .17z"/><path d="M114.5 437.48l1 .55c.048.025.1.037.155.037s.107-.012.155-.037l.9-.53c.08-.05.1-.13 0-.17l-1-.55c-.048-.025-.1-.037-.155-.037s-.107.012-.155.037l-.9.53c-.07.05-.08.13 0 .17z"/><path d="M113.15 436.7l.95.55c.046.024.098.037.15.037s.104-.013.15-.037l.9-.52c.1-.06.1-.13 0-.18l-1-.55c-.047-.022-.098-.034-.15-.034s-.103.012-.15.034l-.9.53c-.02.05-.03.13.05.17z"/><path d="M111.8 435.93l1 .55c.048.025.1.037.155.037s.107-.012.155-.037l.9-.52c.1-.05.1-.13 0-.18l-1-.55c-.047-.022-.098-.033-.15-.033s-.103.01-.15.033l-.9.52c-.07.05-.08.13 0 .18z"/><path d="M110.45 435.15l1 .55c.047.022.098.034.15.034s.103-.012.15-.034l.9-.53c.1-.05.1-.13 0-.17l-1-.55c-.048-.025-.1-.037-.155-.037s-.107.012-.155.037l-.9.52c-.06.03-.07.13 0 .18z"/><path d="M109.1 434.37l1 .55c.046.025.098.037.15.037s.104-.012.15-.037l.9-.52c.1-.06.1-.13 0-.18l-1-.55c-.047-.022-.098-.034-.15-.034s-.103.012-.15.034l-.9.53c-.1.05-.1.13 0 .17z"/><path d="M107.76 433.6l.95.55a.38.38 0 0 0 .31 0l.9-.52c.1-.05.1-.13 0-.18l-1-.55c-.048-.025-.1-.037-.155-.037s-.107.012-.155.037l-.9.52c-.01.05-.02.13.05.18z"/><path d="M106.42 432.82l1 .55c.047.022.098.034.15.034s.103-.012.15-.034l.9-.53c.1-.05.1-.13 0-.17l-.95-.55c-.046-.025-.098-.037-.15-.037s-.104.012-.15.037l-.9.52c-.12.06-.13.13-.05.18z"/><path d="M105.07 432l1 .55c.048.024.1.037.155.037s.107-.013.155-.037l.9-.53c.1-.05.1-.13 0-.17l-1-.55c-.047-.022-.098-.034-.15-.034s-.103.012-.15.034l-.9.53c-.07.1-.07.17 0 .17z"/><path d="M102.06 430.3l2.62 1.5c.046.024.098.037.15.037s.104-.013.15-.037l.9-.52c.1 0 .1-.13 0-.18l-2.62-1.5c-.047-.022-.098-.034-.15-.034s-.103.012-.15.034l-.9.53c-.06.05-.06.13 0 .17zm17.82 10.3l1.3.75c.05.022.1.034.155.034s.106-.012.155-.034l.9-.53c.1-.05.1-.13 0-.17l-1.3-.75c-.046-.025-.098-.037-.15-.037s-.104.012-.15.037l-.9.52c-.06.06-.07.13.01.18z"/></g><g class="J"><path d="M129.74 437.9l-21.6-12.47v-17l.17-.38.18-.1c.227-.128.484-.195.745-.195a1.52 1.52 0 0 1 .745.195l19.76 11.42a1.47 1.47 0 0 1 .549.544 1.48 1.48 0 0 1 .201.746v15.93c-.14.84-.3 1.04-.75 1.3z"/><path d="M127.76 421.45L108.14 409v-.57l.17-.38.18-.1c.227-.128.484-.195.745-.195a1.52 1.52 0 0 1 .745.195l19.76 11.42a1.44 1.44 0 0 1 .57.58l-2.55 1.5z"/></g><use xlink:href="#E" fill="#dceeff"/><use xlink:href="#E" class="K"/><path d="M129.74 437.9v-.6l-21.6-12.48v.62l21.6 12.47z" fill="#dbdbdb"/><path d="M108.7 424.54v-15.58l.27.15v15.3l-.27.14z" fill="#1e3779"/><path d="M108.97 409.1v15.3l20.08 11.57V420.7l-20.08-11.6z" fill="#3a2c6d"/><path d="M108.7 424.54l20.35 11.74v-.3l-20.08-11.57-.27.14z" fill="#031f60"/><path d="M85.44 405.37c-.5 1.28.8 2.84 4.28 3.94s3.8-.3 3.8-.3a69.29 69.29 0 0 1 6.77 3.48c2.1 1.47 3 5.7 3.3 12.83.33 8.26.36 20.52.08 22.63 0 0-3.9 3.9-8.9 3.5s-13.4-4.84-15.45-8.25c0-7.25.9-8.43-.27-12.6-2.7-9.55-4.1-13.46-2.8-19.8 1.08-5.23 2.6-5.88 4.65-5.83 1.523.062 3.042.205 4.55.43h0z" class="K"/><path d="M111.8 434.17c-4.1 1-5.07-1.55-5.6-3.7-1.3-5.18-2-9.87-3-12.8-1.15-3.47-2.35-4-4-4.7-2-.8-3.7.88-3 5.3a88.07 88.07 0 0 0 3.76 15.08c.5 1.62 1.66 4.5 3.37 5.87 2.12 1.7 5.3 1.64 10.13.44 2-.5 4.3-1.74 8.2-3.56 1-.48 1.86-.8 3.86-1.74a13.54 13.54 0 0 0 5.15-4c1.05-1.52 1.2-2.23 1-2.58s-.74-.34-1.3.3a10.99 10.99 0 0 1-3 2.73s1.3-1.33 2-2.2c.635-.77 1.157-1.624 1.55-2.54.38-.9-.4-2.1-1-1.46s-.86 1.28-1.92 2.55c-.556.68-1.194 1.288-1.9 1.8a20.42 20.42 0 0 0 1.75-2.82 4.56 4.56 0 0 0 .64-2.54c0-.47-.68-1-1.3-.14-.594 1.21-1.332 2.34-2.2 3.37-.94 1-1.73 1.53-1.76 1.26s.57-.8.9-1.93 0-2.34-.62-2.47-.5-.1-1 1a29.81 29.81 0 0 0-1.86 3.39 7 7 0 0 1-1.69 2.9c-1.02 1.02-3.25 2.2-7.15 3.2z" class="I"/><path d="M97.67 412.25c2.74-.4 4.67.83 5.88 5l2.06 7.56a7.48 7.48 0 0 1-4.59 3c-3.28.8-4.46-.77-4.46-.77l-1.47-7.32c-.56-2.96-.8-6.97 2.58-7.47z" fill="#ededed"/><path d="M99 391s4.33-6.58-5-7.92c-6.77-1-11.1 3.38-11.62 8.1-.48 4.5 2.3 9.2 4.3 11.05 1.97.492 4.054.24 5.85-.7a32.98 32.98 0 0 0 .13-3.69S89.33 390.88 99 391z" fill="#311637"/><path d="M117.8 474.26V454.5l-15.7 9.16 6.04 12.5 9.65-1.9z" fill="#c4c7d6"/><g class="G"><path d="M107.5 455.64l6.02-3.5 4.26 2.47-6.24 3.54-4.04-2.5z"/><path opacity=".4" d="M31.75 345.63L5 329.94c-3-1.78-2.66-4.9.85-6.94l13.6-8c3.5-2 8.8-2.27 11.85-.5l26.8 15.7c3 1.77 2.65 4.88-.85 6.94l-13.6 8c-3.55 2.05-8.86 2.27-11.9.5z"/></g><path d="M65 330.16v-37.93L7.78 285.7v38.17c.01.653.204 1.3.557 1.84s.853.99 1.443 1.27l26.82 15.7c3 1.78 8.35 1.56 11.85-.5l13.6-8c2-1.16 3-2.65 2.9-4l.05-.01z" class="B"/><path d="M64.94 296.37v-4.14h-4.4L36.12 277.9c-3-1.78-8.35-1.55-11.85.5l-13.6 8a7.18 7.18 0 0 0-.71.46l-2.18-1.17v4.52a3.53 3.53 0 0 0 2 3.1L36.6 309c3 1.78 8.35 1.55 11.85-.5l13.6-8c2-1.2 3-2.73 2.9-4.17v.04z" fill="#f7edf9"/><path d="M36.6 304.5L9.82 288.8c-3-1.78-2.66-4.9.85-6.94l13.6-8c3.5-2 8.8-2.28 11.85-.5l26.8 15.7c3 1.78 2.65 4.9-.86 6.94l-13.6 8c-3.45 2.05-8.8 2.28-11.85.5z" fill="#efe2f2"/><path d="M30.57 283.08v-1.5h-.9l-.3-.18a6.3 6.3 0 0 0-5.79 0c-.17.097-.332.21-.48.34l-.7-.16v1.5c.024.365.147.717.357 1.016s.498.537.833.684a6.36 6.36 0 0 0 5.79 0c.332-.153.617-.39.828-.69a2.08 2.08 0 0 0 .372-1.011h0z" class="L"/><use xlink:href="#F" class="E"/><path d="M40.45 288.77v-1.5h-.9l-.28-.18a6.3 6.3 0 0 0-5.79 0c-.176.095-.34.21-.5.34l-.7-.16v1.5a2.08 2.08 0 0 0 1.2 1.7c.896.458 1.89.697 2.895.697a6.36 6.36 0 0 0 2.895-.697c.335-.147.623-.384.833-.684s.333-.65.357-1.016z" class="L"/><path d="M36.36 289.66c2.26 0 4.1-1.075 4.1-2.4s-1.83-2.4-4.1-2.4-4.1 1.074-4.1 2.4 1.83 2.4 4.1 2.4z" class="E"/><path d="M50.35 294.85v-1.5h-.92l-.28-.18a6.3 6.3 0 0 0-5.79 0c-.174.098-.338.212-.5.34l-.7-.16v1.5c.03.364.16.714.37 1.013s.498.536.83.687a6.3 6.3 0 0 0 5.79 0c.333-.15.62-.388.83-.687s.34-.65.37-1.013h0z" class="L"/><path d="M46.25 295.74c2.26 0 4.1-1.075 4.1-2.4s-1.83-2.4-4.1-2.4-4.1 1.074-4.1 2.4 1.83 2.4 4.1 2.4z" class="E"/></g><defs><clipPath id="A"><path fill="#fff" d="M0 0h457.97v500H0z"/></clipPath><path id="B" d="M54.55 40.34l-23.8 6.27-12.22-7.06 34.97-7.37 1.04.62v7.54z"/><path id="C" d="M119.17 438.67l1 .55c.046.024.098.037.15.037s.104-.013.15-.037l.9-.53c.1-.05.1-.13 0-.17l-.95-.55c-.047-.022-.098-.034-.15-.034s-.103.012-.15.034l-.9.53c-.12.05-.13.13-.05.17z"/><path id="D" d="M115.13 436.34l1 .55c.046.024.098.037.15.037s.104-.013.15-.037l.9-.53c.1-.05.1-.13 0-.17l-1-.55c-.046-.025-.098-.037-.15-.037s-.104.012-.15.037l-.9.53c-.07.05-.08.13 0 .17z"/><path id="E" d="M108.64 408.07l20.74 12c.1.062.2.152.264.26a.72.72 0 0 1 .096.359v17.24l-21.6-12.47v-17.1c-.001-.06.013-.117.042-.17s.07-.094.122-.124a.33.33 0 0 1 .169-.044.32.32 0 0 1 .167.047h0z"/><path id="F" d="M26.48 283.97c2.26 0 4.1-1.075 4.1-2.4s-1.83-2.4-4.1-2.4-4.1 1.074-4.1 2.4 1.83 2.4 4.1 2.4z"/></defs></svg>