<svg xmlns="http://www.w3.org/2000/svg" xmlns:xlink="http://www.w3.org/1999/xlink" viewBox="0 0 1920 350"><defs><style>.a{clip-path:url(#b);}.b{fill:rgba(0,0,0,0.1);}.c{fill:rgba(255,255,255,0.1);}</style><clipPath id="b"><rect width="1920" height="350"/></clipPath></defs><g id="a" class="a"><path class="b" d="M584,640.555l30.411-50H336l30.816-51H277.07l32.3,89H61l56.354-163H86.579l5.687,15H-49l3.25-9H-261.2l11.544,58h-51.328l20.99,48H-540l46.66-112H-741.088l1.354,6H-881l68.922-320.733,50.251,222.783,91.459-131.044,98.7,134.735,62.07-216.232L-449.532,360.4l36.386-87.339,65.417,149.593,37.468-197.592,39.028,196.079,129.866-254.079L-18.494,396.1l38.416-106.36L58.49,391.467l39.136-276.4L139.986,400.1l42.19-122.032,47.213,130.1,132.386-219.1,111.033,175.07,74.966-124.07,68.783,108.452,53.048-159.451,68.937,197.407,58.638-96.407L888.755,433.5,1291.849,0l469.035,480.555H918.8l102.15,160Z" transform="translate(810.053 -115.065)"/><path class="b" d="M68.922,0l72.344,190.82H0Z" transform="translate(20.053 190.67)"/><path class="b" d="M68.922,0l72.344,190.82H0Z" transform="translate(536.053 235.67)"/><path class="b" d="M200.311,0,410.568,190.82H0Z" transform="translate(73.053 285.67)"/><path class="b" d="M68.922,0l72.344,190.82H0Z" transform="translate(1849.053 174.67)"/><path class="b" d="M68.922,0l72.344,190.82H0Z" transform="translate(1109.053 205.67)"/><path class="b" d="M68.922,0l72.344,221.82H0Z" transform="translate(1286.053 174.67)"/><path class="b" d="M86.388,0l90.677,110.91H0Z" transform="translate(1427.053 285.58)"/><path class="b" d="M68.922,0l72.344,190.82H0Z" transform="translate(785.053 300.67)"/><path class="b" d="M68.922,0l72.344,190.82H0Z" transform="translate(926.053 285.67)"/><path class="c" d="M68.922,0l72.344,428.975H0Z" transform="translate(137.053 30.516)"/><path class="c" d="M68.922,0l72.344,428.975H0Z" transform="translate(368.053 96.516)"/><path class="c" d="M139.735,0,286.407,428.975H0Z" transform="translate(536.053 150.516)"/><path class="c" d="M139.735,0,286.407,428.975H0Z" transform="translate(874.053 21.516)"/><path class="c" d="M72.284,0l75.873,428.975H0Z" transform="translate(1208.053 71.516)"/><path class="c" d="M72.284,0l75.873,428.975H0Z" transform="translate(-116.947 -23.484)"/><path class="c" d="M68.922,0l72.344,428.975H0Z" transform="translate(-19.947 150.516)"/><path class="c" d="M139.735,0,286.407,428.975H0Z" transform="translate(536.053 150.516)"/><path class="c" d="M181.406,0,371.818,387.176H0Z" transform="translate(1646.053 128.315)"/></g></svg>