<svg xmlns="http://www.w3.org/2000/svg" xmlns:xlink="http://www.w3.org/1999/xlink" viewBox="0 0 500 500"><defs><style>.a{clip-path:url(#b);}.b{fill:rgba(0,0,0,0.1);}.c{fill:rgba(255,255,255,0.1);}</style><clipPath id="b"><rect width="500" height="500"/></clipPath></defs><g id="a" class="a"><path class="b" d="M570.9,515.242l-276.109.726-.3-.732H0l143.742-371.1,59.928,147.4L230.256,186.67,256.4,285.6,323.267,28.327l66.874,285.011,24.341-38.981,40.853,62.015,150.358-242.6-31.31,426.844Z" transform="translate(-3.512 -15.215)"/><path class="c" d="M138.429,479.522h0Z" transform="translate(51.059 20.259)"/><path class="b" d="M152.023,0l159.57,479.522H0Z" transform="translate(-167.941 20.259)"/><path class="b" d="M137.241,0,281.3,154.232H0Z" transform="translate(88.053 400.259)"/><path class="b" d="M68.922,0l72.344,190.82H0Z" transform="translate(314.053 314.67)"/><path class="c" d="M68.922,0l72.344,428.975H0Z" transform="translate(138.053 71.516)"/><path class="c" d="M81.122,0l85.149,152.446H0Z" transform="translate(-95.947 348.044)"/><path class="c" d="M104.232,0,213.638,485.232,68.108,480.494,25.761,368.416Z" transform="translate(384.686 20.259)"/></g></svg>