<svg xmlns="http://www.w3.org/2000/svg" xmlns:xlink="http://www.w3.org/1999/xlink" width="1097.33" height="810.62" xmlns:v="https://vecta.io/nano"><style><![CDATA[.B{opacity:.1}.C{opacity:.25}.D{opacity:.05}.E{fill:#b80bda}.F{fill:#fdc2cc}.G{fill:#d39999}.H{stroke:#535461}.I{stroke-miterlimit:10}]]></style><defs><linearGradient id="A" x1="588.67" y1="838.15" x2="588.67" y2="115.47" gradientUnits="userSpaceOnUse"><stop offset="0" stop-color="gray" stop-opacity=".25"/><stop offset=".54" stop-color="gray" stop-opacity=".12"/><stop offset="1" stop-color="gray" stop-opacity=".1"/></linearGradient><path id="B" d="M878.35 495.95c0 8.82-16 34.4-16 34.4s-16-25.57-16-34.4c.557-8.408 7.54-14.942 15.965-14.942s15.408 6.535 15.965 14.942z"/><path id="C" d="M904.74 544.8c-4.8 7.4-32.1 20.2-32.1 20.2s.5-30.14 5.3-37.54c5.036-6.76 14.454-8.453 21.53-3.87s9.38 13.87 5.27 21.23z"/><path id="D" d="M903.6 628.26c-7.87 4-37.9 1.23-37.9 1.23s15.64-25.77 23.52-29.74c7.76-3.295 16.744-.005 20.54 7.522s1.102 16.707-6.16 20.988z"/><path id="E" d="M888.5 691.22c-7.1 5.24-37.14 7.6-37.14 7.6s11.06-28 18.15-33.3c7.09-4.588 16.527-2.874 21.552 3.915s3.908 16.313-2.552 21.755z"/><path id="F" d="M839.12 566.7c6.32 6.14 35.8 12.5 35.8 12.5s-7.22-29.27-13.54-35.4c-6.418-5.455-15.967-5-21.837 1.042s-6.05 15.6-.413 21.858z"/><path id="G" d="M822.4 640.54c7.87 4 37.9 1.23 37.9 1.23s-15.64-25.77-23.52-29.74a16 16 0 0 0-24.077 15.035 16 16 0 0 0 9.697 13.475z"/><path id="H" d="M816 714.55c7.1 5.24 37.14 7.6 37.14 7.6s-11.06-28-18.15-33.3a16 16 0 0 0-26.24 10.757A16 16 0 0 0 816 714.54z"/></defs><g class="E"><path d="M12.07 429.97c17.36 74.2 54.1 138.34 112.2 169.43 120.7 64.6 392.9 31.3 596.07-7a465.21 465.21 0 0 0 264.54-151.19z" class="B"/><path d="M799.3 649.72s-67.65 40.8 57.03 103.6c0 0 27.46-51-2.9-92.57-12.2-16.778-35.022-21.78-53.12-11.64z"/></g><path d="M800.1 648.86s57.88 44.28 56.25 104.45" fill="none" class="H I"/><path d="M18.3 661.72s-67.65 40.8 57.03 103.6c0 0 27.46-51-2.9-92.57-12.2-16.778-35.022-21.78-53.12-11.64z" class="E"/><g fill="none" class="H I"><path d="M19.1 660.86s57.88 44.28 56.25 104.45"/><path d="M859.66 759.08s-21.2-72 4-124.9a113.65 113.65 0 0 0 9.19-71.3 191.13 191.13 0 0 0-10.19-33.46" stroke-width="2"/></g><g class="E"><use xlink:href="#B"/><use xlink:href="#C"/><use xlink:href="#D"/><use xlink:href="#E"/><use xlink:href="#F"/><use xlink:href="#G"/><use xlink:href="#H"/></g><use xlink:href="#B" class="C"/><use xlink:href="#C" class="C"/><use xlink:href="#D" class="C"/><use xlink:href="#E" class="C"/><use xlink:href="#F" class="C"/><use xlink:href="#G" class="C"/><use xlink:href="#H" class="C"/><path d="M908.66 760.45s-21.2-72 4-124.9a113.65 113.65 0 0 0 9.19-71.3 191.13 191.13 0 0 0-10.09-33.46" fill="none" stroke-width="2" class="H I"/><g class="E"><use xlink:href="#B" x="49.05" y="1.35"/><path d="M953.78 546.16c-4.8 7.4-32.12 20.15-32.12 20.15s.5-30.14 5.3-37.54c5.036-6.76 14.454-8.453 21.53-3.87s9.38 13.87 5.27 21.23zm-1.12 83.47c-7.87 4-37.9 1.23-37.9 1.23s15.64-25.77 23.52-29.74c7.755-3.27 16.718.025 20.506 7.54s1.106 16.682-6.136 20.97z"/><use xlink:href="#E" x="49.03" y="1.38"/><use xlink:href="#F" x="49.04" y="1.36"/><path d="M871.44 641.9c7.87 4 37.9 1.23 37.9 1.23s-15.67-25.77-23.5-29.74c-7.76-3.295-16.744-.005-20.54 7.522a16 16 0 0 0 6.16 20.988zm-6.4 74.02c7.1 5.24 37.14 7.6 37.14 7.6s-11.06-28-18.15-33.3a16 16 0 1 0-19 25.67z"/><path d="M1077.43 80.72H965.96a9.64 9.64 0 0 1-9.635-9.635 9.64 9.64 0 0 1 9.635-9.635h19.27a9.64 9.64 0 0 1-9.635-9.635 9.64 9.64 0 0 1 9.635-9.635h-13.77a9.64 9.64 0 0 1-9.635-9.635 9.64 9.64 0 0 1 9.635-9.635h58.2c-12.9-6-28-10.27-45.38-12.5-158.64-20.4-215.28-6.9-235.26 7-24.65 17.1-52.15 29.68-81.54 35.74-97.9 20.17-280.95 44.46-446.82-7.83-82.46-26-143.76 17.92-180.48 91.3h1056.6c-1.38-21.32-5.5-41-13.1-58.24a9.58 9.58 0 0 1-6.27 2.37zM2.66 275.1a491.06 491.06 0 0 0 4.33 129.46l978.67 35.75a460 460 0 0 0 68-103.7zm387 92.35h-19.23a9.64 9.64 0 0 1 9.635 9.635 9.64 9.64 0 0 1-9.635 9.635H258.96c-3.442 0-6.623-1.836-8.344-4.817a9.64 9.64 0 0 1 0-9.635 9.63 9.63 0 0 1 8.344-4.817h19.27a9.64 9.64 0 0 1-9.635-9.635 9.64 9.64 0 0 1 9.635-9.635h-13.77a9.64 9.64 0 0 1-9.635-9.635 9.64 9.64 0 0 1 9.635-9.635h111.47c3.442 0 6.623 1.836 8.344 4.817a9.64 9.64 0 0 1 0 9.635 9.63 9.63 0 0 1-8.344 4.817h13.73a9.64 9.64 0 0 1 9.635 9.635 9.64 9.64 0 0 1-9.635 9.635zm707.17-230.15l-1068.5 26c-13 33.4-21.6 71.2-25.6 110.34H1078.1a456.46 456.46 0 0 0 15.55-70.34c3.17-23 4.46-45.3 3.17-66zm-877.17 85.14h-19.23a9.64 9.64 0 0 1 9.635 9.635 9.64 9.64 0 0 1-9.635 9.635H88.96c-3.442 0-6.623-1.836-8.344-4.817a9.64 9.64 0 0 1 0-9.635 9.63 9.63 0 0 1 8.344-4.817h19.27a9.64 9.64 0 0 1-9.635-9.635 9.64 9.64 0 0 1 9.635-9.635H94.46a9.64 9.64 0 0 1-9.635-9.635 9.64 9.64 0 0 1 9.635-9.635h111.47a9.64 9.64 0 0 1 9.635 9.635 9.64 9.64 0 0 1-9.635 9.635h13.73a9.64 9.64 0 0 1 9.635 9.635 9.64 9.64 0 0 1-9.635 9.635z" class="B"/><ellipse cx="550.33" cy="777.62" rx="533" ry="33"/></g><path d="M774.44 313.8l-70.74-66.87c-3.1-3-6.05-6-8.56-8.53a33.57 33.57 0 0 0-17.73-9.29c-23.16-4.4-46.85-18.63-46.85-18.63h0c-.13-.17-.26-.32-.38-.5a28.17 28.17 0 0 1-4.35-9.3c-.13-.5-.26-1-.37-1.52q.56-.72 1.1-1.47a7.16 7.16 0 0 0 1.17-.53c2.93-1.67 4.58-4.76 5.7-7.8 1-2.7 1.8-5.66 4.18-7.4a8.74 8.74 0 0 0 2.27-1.81 5.33 5.33 0 0 0 .53-3.09c0-6.83-1.1-12.07.5-18.73 2.54-10.66 4.87-24-3.18-31.9a28.11 28.11 0 0 0-15.16-7.55c-5.17-.82-12.82 6.22-18.06 6-13.35-.5-24.6-12.55-37.3-8.66a26.22 26.22 0 0 0-13.7 9.82c-6.26 8.92-5.66 20.46-4.76 31.1a3.87 3.87 0 0 0 .69 2.27c.47.55 1.22.84 1.68 1.4a3.37 3.37 0 0 1 .52 2.49 16.34 16.34 0 0 1-1.24 5 2 2 0 0 0-.19 1.81 1.89 1.89 0 0 0 1 .68 9.09 9.09 0 0 0 1.65.39 38.87 38.87 0 0 0-.2 2.65v1.5a39.14 39.14 0 0 0 17.82 32.68l.34 2.23a127.04 127.04 0 0 1 .88 7.86c0 .52.08 1 .12 1.57l-.27-.55-43 21.08a21.31 21.31 0 0 0-8.67 4.25l-.85.42v.25q-.53.44-1.08.94l-37.3-42.14-87 75.52 47.84 51.5 53.76-4.48-4.46 32.15s-9.83 42.13 37.8 34.07c-.3 26.57-11.7 70.9-11.7 70.9a23.42 23.42 0 0 0 4.63 4.57l-.27 1.8-3 20.37s-17.86 49.48-20.6 93.6-6.18 68.87-6.18 68.87l-6.18 88.27-8.7 40.36a204.06 204.06 0 0 1-49.4 39.5 6.92 6.92 0 0 0-2.8 9.48c3.52 6.06 14.35 12.35 47.15 2.27 52.2-16 47.4-15.38 47.4-15.38s.77-21.42-1.45-34.12l-.2-1.12c12.5-14.1 6.46-37 6.46-37s24.72-48.14 13-79.57c0 0-2.75-26.75 11.68-39.45.2-.18.4-.38.62-.6l.2-.2.47-.5.2-.23.67-.78c.22-.27.45-.56.68-.86l.18-.24.58-.65.22-.32.54-.8.18-.26.73-1.1.14-.22.6-1 .23-.38.56-.94.2-.36.77-1.34.77-1.38.22-.4.6-1.1.23-.44.7-1.35.1-.17 1.02-2 .64-1.27.24-.48.67-1.36.17-.34.98-2.04.7-1.5.24-.5.65-1.4.2-.45.86-1.87 1.06-2.36.65-1.47.22-.5.9-1.9v-.08l.87-2 .2-.43.9-2.1.7-1.7.14-.32 1-2.33.94-2.25.65-1.6.2-.46.83-2 .07-.17.98-2.42.83-2.07.72-1.82.07-.2.78-2 .23-.58.56-1.43.24-.63.6-1.52.17-.45.73-1.9 1-2.6.47-1.22.25-.66.66-1.75.2-.5.48-1.28.27-.7.4-1.07.27-.73.74-2 .45-1.22.3-.78.3-.84.54-1.5.67-1.82.1-.3.3-.86.53-1.44.15-.4 4.63-13s13 45.47 11 59.5 12.36 66.2 12.36 66.2-8.24 52.16-3.43 64.86-6.87 60.18-6.87 60.18a70.89 70.89 0 0 0 2.4 1.24l-.1 1.3c-.75 10.44-2.38 30.5-4.37 38.26-2.75 10.7-1.37 22.07 20.6 20.73s22.66-14.7 22.66-14.7-7.25-23.38-8.14-37.17c0-.45 0-.9-.06-1.32h0l.62-.23.18-.07a12.02 12.02 0 0 0 .72-.34h0c.22-.12.42-.24.63-.37l.18-.12q.26-.18.5-.38l.12-.1q.3-.25.57-.52l.13-.13q.2-.23.4-.47l.14-.18c.16-.2.32-.43.47-.67 7.55-12 8.24-37.45 8.24-37.45s15.1-85.6 9.62-97-2.75-38.1-2.75-38.1-6.18-40.12.7-59.5c5.14-14.52 8.36-64.66 8.2-88.65q0-.75 0-1.47v-.5c5.12-6.36 9-17.52 6.24-37.08-.16-1.1-.28-2.23-.4-3.37 7.8-5.83 15.5-12.68 15.5-12.68l2.66-2.74.85-.88a25.51 25.51 0 0 0 2.33.84c3 1.36 5.14 2.12 5.14 2.12s39.15-32.1 68.68-47.48 5.57-43.6 5.57-43.6zm-46.7 28.08S686.53 368 679 381.34a10 10 0 0 0-1 2.38l-1 .42-1.26.48c6.3-36 23.2-71.5 23.2-71.5s13 11.37 22 16 6.8 12.76 6.8 12.76z" transform="translate(-51.34 -44.69)" fill="url(#A)"/><path d="M424.4 783.86c-31.64 10-42.1 3.76-45.48-2.25a7 7 0 0 1 2.7-9.39 198.05 198.05 0 0 0 48-39.54c3.52-4 5.37-6.45 5.37-6.45s24.5-4.64 30.47 0c1.5 1.16 2.53 4.4 3.24 8.6 2.14 12.58 1.4 33.8 1.4 33.8s4.64-.67-45.7 15.23zm169.56-9.28s-.66 13.25-21.86 14.57-22.52-9.94-19.87-20.53c1.92-7.68 3.5-27.55 4.2-37.9l.42-6.48s33.12-3.3 29.8 6a20.65 20.65 0 0 0-.56 7.56c.86 13.63 7.85 36.78 7.85 36.78z" fill="#5b5877"/><path d="M468.66 734.83l-.6.68c-12.6 13.9-39.08 0-39.08 0l.6-2.82c3.52-4 5.37-6.45 5.37-6.45s24.5-4.64 30.47 0c1.53 1.15 2.57 4.4 3.24 8.6zm118-4.63a20.65 20.65 0 0 0-.56 7.56c-8.66 3-24-4.1-29.67-7l.42-6.48s33.14-3.35 29.8 5.92z" class="B"/><path d="M607.87 599.7c5.3 11.26-9.27 96-9.27 96s-.66 25.17-7.95 37.1-36.43-4.64-36.43-4.64 11.26-47 6.62-59.62 3.3-64.23 3.3-64.23-13.9-51.67-11.92-65.58-10.6-59-10.6-59-29.15 86.78-43.06 99.36-11.26 39.08-11.26 39.08c11.26 31.13-12.6 78.83-12.6 78.83s6 23.18-6.62 37.1-39.08 0-39.08 0l8.64-40.98 6-87.44s3.3-24.5 6-68.23 19.87-92.74 19.87-92.74l5.3-37.1 137.78-5.3c.83-.17 1.25 4.9 1.3 12.86.15 23.77-3 73.43-7.92 87.82-6.62 19.2-.66 59-.66 59s-2.75 26.47 2.55 37.73z" fill="#5f5d7e"/><path d="M534.35 479.8s-29.15 86.78-43.06 99.36-11.26 39.08-11.26 39.08c11.26 31.13-12.6 78.83-12.6 78.83s6 23.18-6.62 37.1a19 19 0 0 1-12.22 6c7 .73 14.4-.33 19.5-6 12.6-13.9 6.62-37.1 6.62-37.1s23.85-47.7 12.6-78.83c0 0-2.65-26.5 11.26-39.08 10.7-9.67 30.36-63.1 38.9-87.37l-3.13-12zm70.87 82.15s-6-39.74.66-59c5-14.4 8.06-64.05 7.92-87.82 0-8-.46-13-1.3-12.86-.4.08-2.88.23-6.87.42.56 1.36.84 5.92.88 12.45.15 23.77-3 73.43-7.92 87.82-6.62 19.2-.66 59-.66 59s-2.65 26.5 2.65 37.76-9.27 96-9.27 96-.66 25.17-7.95 37.1a8.84 8.84 0 0 1-6.08 4c5.67.84 10.83.14 13.36-4 7.3-11.92 7.95-37.1 7.95-37.1s14.57-84.8 9.27-96-2.65-37.77-2.65-37.77z" class="D"/><path d="M588 175.1l-4.64 45.7s-73.53 15.9-65.58-9.94c3.76-12.23 4-25.36 3.13-35.8-.23-2.82-.52-5.44-.85-7.8a111.52 111.52 0 0 0-2.28-12.06c0 0 57-43.06 54.32-13.9a47.46 47.46 0 0 0 1.05 16.47 28.24 28.24 0 0 0 4.2 9.21c4.7 6.62 10.65 8.1 10.65 8.1z" class="F"/><path d="M573.16 157.8l-1.66 2.1c-12.787 15.158-34.9 18.34-51.44 7.4a111.52 111.52 0 0 0-2.28-12.06c0 0 57-43.06 54.32-13.9a47.46 47.46 0 0 0 1.06 16.46z" class="B"/><path d="M580.7 132.7c0 21.583-17.497 39.08-39.08 39.08s-39.08-17.497-39.08-39.08v-1.5c.833-21.263 18.525-37.95 39.8-37.542s38.313 17.763 38.33 39.042z" class="F"/><path d="M613.8 415.18a21.3 21.3 0 0 1-13.88 8.33l-30.44 10.65h-.07l-9.23 3.23-8.6-21.2v21.2s-58.16 4-79.26-12.9l2.42-16.92 137.78-5.3c.83-.13 1.25 4.92 1.3 12.9zM588 175.1l-4.64 45.7s-73.53 15.9-65.58-9.94c3.76-12.23 4-25.36 3.13-35.8 1.27 2.66 10.62 21.48 22.7 24.75h0a13.11 13.11 0 0 0 4.63.44 15.37 15.37 0 0 0 7.13-2.76c10.88-7.23 20-26.26 22-30.5 4.66 6.6 10.62 8.1 10.62 8.1z" class="B"/><path d="M711.2 312.9c-28.48 15.24-66.24 47-66.24 47s-27.82-9.94-20.53-23.18 47-39.08 47-39.08 2-7.95-6.62-12.6-21.2-15.9-21.2-15.9-29.8 64.25-23.85 107.3-19.87 45-19.87 45l-30.44 10.65h-.07l-9.23 3.23-8.6-21.2v21.2s-67.57 4.64-83.46-17.22c0 0 14.57-58.3 10.6-80.8s-8.6-135.8-8.6-135.8l50.67-25.5s9.9 21.63 22.9 25.16h0a13.11 13.11 0 0 0 4.63.44 15.37 15.37 0 0 0 7.13-2.76c12.27-8.15 22.35-31.35 22.35-31.35s22.85 14.1 45.2 18.45a32.1 32.1 0 0 1 17.1 9.2l8.26 8.45 68.23 66.24s23.1 27.8-5.34 43.05z" class="G"/><path d="M645.66 348.66l-8.7 9.2-2.56 2.72s-23.18 21.2-29.15 20.53-15.9-41.07-4-38.42c7.24 1.6 15.7-.93 21.23-3.18h0a56.17 56.17 0 0 0 5.92-2.78z" class="F"/><path d="M580.7 132.7a38.9 38.9 0 0 1-9.22 25.21 5.64 5.64 0 0 1-5.25-2.51c-1.1-1.93-.64-4.35-1.37-6.43s-2.4-3.5-3.44-5.36c-2.66-4.66-1.54-11.72-6.4-14.22-2.24-1.14-4.95-.76-7.45-.34-4.9.8-9.85 2.42-14.7 3.1-5.52.78-10.5-2.8-15.94-2.9-4.86-.08-9.74 2.77-14.35 1.95.833-21.263 18.525-37.95 39.8-37.542s38.313 17.763 38.33 39.042z" class="B"/><path d="M547.57 126.4c2.5-.4 5.2-.8 7.45.35 4.87 2.5 3.75 9.55 6.4 14.2 1.05 1.85 2.75 3.36 3.45 5.36s.27 4.5 1.37 6.43c1.6 2.8 5.9 3.2 8.73 1.54s4.4-4.7 5.48-7.73c.94-2.66 1.73-5.6 4-7.34a8.48 8.48 0 0 0 2.19-1.79 5.4 5.4 0 0 0 .52-3.06c0-6.76-1.05-12 .48-18.55 2.45-10.56 4.7-23.78-3.07-31.6a26.85 26.85 0 0 0-14.62-7.48c-5-.82-12.36 6.16-17.42 6-12.87-.5-23.73-12.43-36-8.58a25.32 25.32 0 0 0-13.22 9.73c-6 8.84-5.46 20.26-4.6 30.8a3.9 3.9 0 0 0 .67 2.25c.45.54 1.18.83 1.62 1.38a3.41 3.41 0 0 1 .5 2.46 16.55 16.55 0 0 1-1.19 5 2.06 2.06 0 0 0-.18 1.8 1.82 1.82 0 0 0 1 .68c5 1.8 10.4-1.67 15.75-1.58s10.43 3.67 15.95 2.9c4.87-.75 9.8-2.36 14.72-3.17z" fill="#865a61"/><path d="M569.5 432.17h-.07l-9.57 3.56-3.54-9.85-15-41.82 2.35-182.9a13.11 13.11 0 0 0 4.63.44 15.37 15.37 0 0 0 7.13-2.76h0l-2.84 180z" class="D"/><g fill="#fff"><circle cx="550.91" cy="208.23" r="1.99"/><circle cx="546.93" cy="275.79" r="1.99"/><circle cx="543.62" cy="346.01" r="1.99"/><circle cx="547.6" cy="381.11" r="1.99"/></g><path d="M615.83 283.74h-42.4v-42.4l21.2-5.97 21.2 5.97v42.4z" class="D"/><g fill="#fff"><circle cx="548.92" cy="239.36" r="1.99"/><circle cx="595.95" cy="241.35" r="1.99"/><circle cx="544.95" cy="312.22" r="1.99"/></g><path d="M479.37 196.97s-18.55 2.65-24.5 36.43-11.92 80.8-11.92 80.8-9.94 43.72 39.72 33.1l2.65-15.24s-5 17.55-3.64-17.55l1.66-58z" class="G"/><path d="M479.37 196.97s-18.55 2.65-24.5 36.43-11.92 80.8-11.92 80.8-9.94 43.72 39.72 33.1l2.65-15.24s-7.62 16.9-6.3-18.22 4.3-57.3 4.3-57.3z" class="D"/><path d="M645.66 348.66l-8.7 9.2c-12.37-5-14.77-18.1-14.77-18.1l.32-.24a56.17 56.17 0 0 0 5.92-2.78z" class="B"/><path d="M633.38 331.77l-9.9 7.33s3.27 17.84 21.8 19.83l7.95-13.9z" class="G"/><path fill="#f2f5fb" d="M349.25 235.77l83.88-74.8 38.4 44.67 65.88-3.4 19.97 41.3-62.72 81.92-29.38-44.63-69.88 5.98-46.14-51.03z"/><path fill="#dde0ed" d="M550.42 243.63l-56.5 73.42-25.17-39.16-69.38 6.1-43.03-47.58 78.23-69.76 35.8 41.65 18.48-.95 42.96-2.22 18.62 38.5z"/><g fill="#abb1d1"><path d="M411.67 213.48l-44.32 35.1-11-12.17L401 196.56l10.66 16.92zm50.56 25.85l-3.5-22-23.32-27.37 16.44-3.2 18.5 21.53 18.48-.95 6.78 26.2-32.93 8.67-.46-2.87z"/><path d="M550.42 243.63l-22.07 28.67-11.46-17.28 31.68-15.22 1.85 3.83zM504.8 302.9l-10.88 14.15-25.17-39.16-26.4 2.32-4.8-33.1 24.67-7.77 2.96 22.62 16.7 2.6 22.92 38.36z"/></g><g fill="#d7666f"><path d="M457.54 248.3a.66.66 0 0 1-.64-.23 38.34 38.34 0 0 0-11.07-9.27.66.66 0 0 1-.022-1.147.66.66 0 0 1 .662-.013 39.67 39.67 0 0 1 11.45 9.59.66.66 0 0 1-.39 1.07z"/><path d="M449.66 250.15a.66.66 0 0 1-.69-1l8.58-14.17a.66.66 0 1 1 1.13.69l-8.58 14.17a.66.66 0 0 1-.44.31z"/></g><path fill="#fff" d="M399.4 283.1l70.82-74.96 61.46-3-62.75 72.48-69.53 5.47z" class="B"/><path d="M460.82 319.47s16.56-40.63 24.5-36.4 31.13 29.55 15.24 40.63-27.16 16.36-27.16 16.36l-12.6-1.58z" class="F"/><path d="M451.88 319.84s15.2-11.92 27.46 24.18l-11.57 1.66-13.25-7.95z" class="G"/><path d="M451.88 319.84s15.2-11.92 27.46 24.18l-11.57 1.66-13.25-7.95z" class="D"/></svg>