<svg xmlns="http://www.w3.org/2000/svg" width="932" height="742" fill="none" xmlns:v="https://vecta.io/nano"><g clip-path="url(#A)"><g fill="#fbebfe"><path d="M540.726 740.93c39.325 0 71.204-31.88 71.204-71.204s-31.88-71.204-71.204-71.204-71.204 31.88-71.204 71.204 31.88 71.204 71.204 71.204z"/><path d="M556.577 723.244c-17.518 0-34.642-5.195-49.208-14.927s-25.917-23.565-32.62-39.75a88.56 88.56 0 0 1-5.04-51.173 88.57 88.57 0 0 1 24.24-45.35c12.387-12.387 28.168-20.823 45.35-24.24s35-1.664 51.174 5.04a88.57 88.57 0 0 1 54.677 81.829 88.67 88.67 0 0 1-88.571 88.571zm0-175.984c-17.29 0-34.19 5.127-48.564 14.732s-25.58 23.257-32.195 39.23-8.348 33.55-4.975 50.505a87.41 87.41 0 0 0 23.923 44.757c12.225 12.225 27.8 20.55 44.757 23.923a87.41 87.41 0 0 0 89.735-37.169C638.863 668.862 644 651.962 644 634.673c-.027-23.175-9.244-45.394-25.632-61.782a87.51 87.51 0 0 0-61.781-25.631z"/></g><g fill="#523d56"><path d="M858.797 96.437H413.675v253.05h445.122V96.437z"/><path d="M932 350.667H412.494V54.312H932v296.355zm-517.144-2.362H929.64V56.673H414.856v291.632z"/></g><path d="M636.236 313.875c30.648 0 55.493-24.845 55.493-55.493S666.884 202.9 636.236 202.9s-55.493 24.845-55.493 55.492 24.845 55.493 55.493 55.493z" fill="#b80bda"/><path d="M636 252v36m-12-12a15 15 0 0 1-14.947-13.62c-.344-3.725.717-7.445 2.973-10.428s5.548-5.017 9.226-5.7c.646-3.44 2.473-6.544 5.166-8.778a15.01 15.01 0 0 1 9.582-3.457c3.5 0 6.888 1.223 9.58 3.457s4.52 5.34 5.167 8.778c3.666.697 6.94 2.735 9.185 5.716a15 15 0 0 1 2.955 10.407c-.343 3.715-2.058 7.17-4.81 9.69A15 15 0 0 1 648 276h-24zm3-15l9-9-9 9zm9-9l9 9-9-9z" stroke="#fff" stroke-width="4" stroke-linecap="round" stroke-linejoin="round"/><path d="M695.866 64.938h-95.64v-18.89h95.64l9.44 9.446-9.44 9.445z" fill="#f2c0fc"/><path d="M601.4 64.938h-95.64v-18.89h95.64l9.44 9.446-9.44 9.445z" fill="#e489f5"/><path d="M508.135 64.938h-95.64v-18.89h95.64l9.44 9.446-9.44 9.445z" fill="#b80bda"/><path d="M84.493 740.284l-1.267-.475c-.278-.105-27.992-10.723-40.975-34.8s-6.626-53.066-6.56-53.356l.3-1.32 1.267.475c.28.105 27.992 10.723 40.975 34.8s6.626 53.067 6.56 53.357l-.3 1.32zM44.33 703.89c10.976 20.356 32.877 30.79 38.426 33.173 1.055-5.947 4.364-29.997-6.603-50.334s-32.874-30.786-38.426-33.173c-1.056 5.95-4.363 29.998 6.603 50.334z" fill="#523d56"/><path d="M52.173 696.564C75.504 710.6 84.5 738.482 84.5 738.482s-28.842 5.122-52.173-8.914S0 687.65 0 687.65s28.842-5.123 52.173 8.914z" fill="#b80bda"/><path d="M340.035 335.5s40.606 21.055 25.567 40.606-40.606-22.56-40.606-25.567 15.04-15.04 15.04-15.04z" fill="#a0616a"/><path d="M294.917 281.348s27.07 33.087 34.59 37.6 13.535 9.023 13.535 10.527 6.016 9.024 6.016 9.024l-24.063 21.055s-27.07-36.095-30.08-36.095 0-42.1 0-42.1z" fill="#575a89"/><path d="M159.562 667.86l-18.047 30.08 27.07 12.03 25.567-7.52-15.04-37.598-19.55 3.008z" fill="#a0616a"/><g fill="#3e2e41"><path d="M210.696 340.002l-15.04 142.874s-33.087 67.677-33.087 121.82-12.03 69.182-12.03 69.182l37.598 6.015 40.606-132.346 67.678-123.323L276.87 300.9l-33.087-12.03-33.087 51.134zm-54.142 356.434s-11.28-15.792-11.28-11.28-21.807 54.894-3.76 54.894 66.173-3.008 75.197 0 39.102-3.008 36.095-21.055-39.103-16.544-39.103-16.544-21.754-30.322-27.42-19.673l-5.667 10.65-24.063 3.008z"/></g><path d="M318.98 667.86l-18.047 30.08 27.07 12.03 25.567-7.52-15.04-37.598-19.55 3.008z" fill="#a0616a"/><g fill="#3e2e41"><path d="M315.972 696.436s-11.28-14.288-11.28-9.776-21.807 53.4-3.76 53.4 66.174-3.008 75.197 0 39.103-3.008 36.095-21.055-39.102-16.544-39.102-16.544-21.755-30.322-27.42-19.673l-5.666 10.65-24.063 3.008zm-129.34-357.938s4.512 40.606 28.575 78.205 58.654 103.772 58.654 103.772-3.008 66.173 13.535 103.77 19.55 57.15 19.55 57.15l40.607-10.527s-22.56-126.33-13.536-154.906-34.6-177.465-34.6-177.465l-40.607-34.6-52.638-6.016-19.55 40.607z"/></g><g fill="#a0616a"><path d="M273.31 91.187c19.104 0 34.6-15.487 34.6-34.59s-15.486-34.59-34.6-34.59-34.59 15.487-34.59 34.59 15.487 34.59 34.59 34.59z"/><path d="M245.048 58.337l-18.103 38.728 50.825 35.204s-5.983-41.926 5.288-52.544-38-21.388-38-21.388z"/></g><path d="M284.39 135.466s-24.063-49.63-43.614-49.63-70.685 34.59-69.18 42.1 1.503 9.024 1.503 13.536-10.527 4.512-1.503 7.52 10.527 6.016 10.527 6.016l-7.52 192.505s33.087 12.03 45.12 7.52 24.063-34.6 24.063-34.6-3.008 40.606 9.023 39.102 57.15-4.512 58.654-10.527-9.024-138.363-9.024-138.363l-18.047-75.197z" fill="#575a89"/><path d="M174.6 358.05s-18.047 66.173 7.52 60.158 18.047-58.654 18.047-58.654L174.6 358.05z" fill="#a0616a"/><path d="M206.184 123.434L162.57 234.726s-6.016 12.032 0 21.055-3.008 63.166 3.008 75.197 6.016 33.087 6.016 33.087l34.6 3.008 7.52-132.347 39.102-84.22s-3.008-34.6-46.622-27.07z" fill="#575a89"/><path opacity=".1" d="M217.464 119.674s-27.07 7.52-36.095 34.59l36.095-34.59z" fill="#000"/><path d="M250.642 72.378c3.366-.2 6.652.937 9.994 1.38 11.957 1.587 24.396-7.09 27.036-18.858.21-1.567.68-3.09 1.383-4.505 1.84-3.004 6.03-3.577 9.486-2.886s6.73 2.308 10.248 2.492c5.433.285 10.648-3.06 13.543-7.665s3.715-10.273 3.324-15.7l-2.604 2.733c-1.058-2.24-1.467-4.73-1.18-7.19-1.38-.367-2.832-.375-4.215-.02a8.34 8.34 0 0 0-3.687 2.043c-2.297.244-.564-4.26-2.27-5.816-.714-.652-1.81-.53-2.776-.52-4.886.047-8.838-3.7-12.687-6.698-6.67-5.2-14.47-8.758-22.77-10.386-5.517-1.076-11.383-1.25-16.614.805-4.297 1.687-7.893 4.76-11.22 7.96-8.19 7.876-15.444 17.13-18.85 27.97-2.77 8.88-2.85 18.38-.225 27.302 1.373 4.634 5.51 20.505 11.568 20.874 7.612.464 3.042-12.75 12.516-13.316z" fill="#523d56"/><path opacity=".1" d="M253.1 183.008l-35.42 51.95-11.328 120.67 46.75-172.62z" fill="#000"/><path d="M556.54 739.115H.43v2.362H556.54v-2.362z" fill="#523d56"/><path d="M408.768 425.296l-82.468-52.94c29.795-26.29 50.787-55.825 58.042-90.417l82.468 52.94c-26.704 24.728-46.678 55.843-58.042 90.417z" fill="#b80bda"/><g fill="#3f3d56"><path d="M436.414 338.517L393.7 311.1l-1.275 1.987 42.724 27.427 1.276-1.988zm-5.104 7.95l-42.725-27.426-1.275 1.987 42.724 27.426 1.276-1.987zm-5.102 7.95l-42.724-27.426-1.276 1.987 42.725 27.426 1.275-1.987zm-5.102 7.95l-42.725-27.427-1.275 1.987 42.724 27.427 1.276-1.987zm-5.103 7.948l-42.724-27.426-1.276 1.987 42.725 27.426 1.275-1.987zm-5.103 7.948l-42.725-27.426-1.275 1.987 42.724 27.426 1.276-1.987zm-5.102 7.94l-42.724-27.427-1.276 1.988 42.724 27.426 1.276-1.987zm-5.102 7.96l-42.725-27.427-1.275 1.987 42.724 27.427 1.276-1.987z"/></g><path d="M425 409.036l-96.55-16.787c17.257-35.794 25.144-71.16 18.405-105.855l96.55 16.787A214.52 214.52 0 0 0 425 409.036z" fill="#f2f2f2"/><g fill="#3f3d56"><path d="M416.804 318.332l-50.02-8.697-.404 2.326 50.02 8.698.405-2.327zm-1.62 9.303l-50.02-8.697-.405 2.327 50.02 8.697.404-2.327zm-1.618 9.305l-50.02-8.697-.405 2.327 50.02 8.697.404-2.327zm-1.617 9.307l-50.02-8.697-.404 2.327 50.02 8.697.405-2.327zm-1.62 9.306l-50.02-8.697-.405 2.326 50.02 8.698.404-2.327zm-1.617 9.307l-50.02-8.697-.405 2.326 50.02 8.698.404-2.327zm-1.618 9.305l-50.02-8.697-.405 2.326 50.02 8.697.404-2.326zm-1.618 9.305l-50.02-8.697-.405 2.326 50.02 8.697.405-2.326z"/></g></g><defs><clipPath id="A"><path fill="#fff" d="M0 0h932v741.477H0z"/></clipPath></defs></svg>