<svg xmlns="http://www.w3.org/2000/svg" xmlns:xlink="http://www.w3.org/1999/xlink" width="1145.7" height="817.62"><style><![CDATA[.B{opacity:.1}.C{fill:#b80bda}.D{fill-opacity:.725}]]></style><g class="C"><path d="M1145.7 454.1a268.06 268.06 0 0 1-310.49 264.52H410.5A364.06 364.06 0 0 1 361 722C199.65 722 63 616.14 16.78 470.1A360.77 360.77 0 0 1 0 361C0 161.62 161.63 0 361 0c160.57 0 296.63 104.8 343.52 249.8a266.84 266.84 0 0 1 173.33-63.61c147.9 0 267.85 119.94 267.85 267.9z" class="B"/><path d="M1042.8 665.17a268.31 268.31 0 0 1-207.58 53.45H410.5A364.06 364.06 0 0 1 361 722C199.65 722 63 616.14 16.78 470.1c34.57-73.9 123.4-126.47 227.57-126.47 101.5 0 188.45 49.94 224.8 120.87a301.82 301.82 0 0 1 54.19-4.87c105.2 0 194.77 53.65 228.6 128.7a295.63 295.63 0 0 1 86.41-12.71c85.8 0 161.2 35.68 204.44 89.55z" class="B"/><ellipse cx="573.35" cy="792.12" rx="510" ry="25.5" class="B"/></g><path d="M583.67 483.7c-1.68.37-2.66 2.06-3.44 3.6a19 19 0 0 0-1.32 3 17.32 17.32 0 0 0-.55 5.37 12.56 12.56 0 0 0 .36 3.41 4.52 4.52 0 0 0 2 2.7" fill="none" stroke="#000" stroke-miterlimit="10" class="B"/><g class="C"><path d="M314.85 135.75a28.9 28.9 0 0 0-16.77 1.83 24.71 24.71 0 0 1-20.14-.05 28.26 28.26 0 0 0-23.68.46 14.64 14.64 0 0 1-6.82 1.71c-9.6 0-17.6-9.67-19.25-22.43a18.58 18.58 0 0 0 4.8-5.18c5.63-9.07 14.35-14.9 24.14-14.9s18.4 5.75 24 14.73a18.53 18.53 0 0 0 15.95 8.76h.25c7.63 0 14.25 6.12 17.52 15.06z" class="B"/><path d="M344.05 95.7l-15.52 9.85 9.42-17.14a15.4 15.4 0 0 0-9.39-3.35h-.25a18.16 18.16 0 0 1-3.22-.23l-5.24 3.33 2.26-4.1a18.68 18.68 0 0 1-9.2-7l-9.42 6 5.95-10.8c-5.5-6.6-12.93-10.67-21.1-10.67-9.8 0-18.5 5.83-24.14 14.9a18 18 0 0 1-16 8.6h-.53c-10.8 0-19.57 12.26-19.57 27.37s8.74 27.36 19.6 27.36a14.72 14.72 0 0 0 6.82-1.7 28.22 28.22 0 0 1 23.68-.47 24.71 24.71 0 0 0 20.14.05 28.29 28.29 0 0 1 23.48.45 14.65 14.65 0 0 0 6.74 1.67c10.8 0 19.57-12.25 19.57-27.37a34.76 34.76 0 0 0-4.08-16.74z" class="B"/></g><g fill="#3f3d56"><path d="M858.35 668.92v8c0 16.57 13.43 30 30 30s30-13.43 30-30v-8c0-16.57-13.43-30-30-30s-30 13.43-30 30zm60-128v-8c0-16.57-13.43-30-30-30s-30 13.43-30 30v8a29.63 29.63 0 0 0 1.29 8.67c4.312 14.224 18.4 23.147 33.093 20.976s25.6-14.782 25.617-29.646z"/><path d="M858.35 600.92v8c0 16.57 13.43 30 30 30s30-13.43 30-30v-8c0-16.57-13.43-30-30-30s-30 13.43-30 30zm30 106c-16.548.05-29.95 13.452-30 30v8c0 16.57 13.43 30 30 30s30-13.43 30-30v-8c-.05-16.548-13.452-29.95-30-30z"/></g><use xlink:href="#B" class="B"/><use xlink:href="#B" y="68" class="B"/><use xlink:href="#B" y="136" class="B"/><use xlink:href="#B" y="204" class="B"/><g fill="#3f3d56"><path d="M980.98 609.43l-2.4 1.85a11.33 11.33 0 0 1-16.14-15.57 11.2 11.2 0 0 1 2.29-2.38l2.4-1.85c4.97-3.822 12.098-2.89 15.92 2.08s2.89 12.098-2.08 15.92z"/><path d="M946.8 607.17l-2.4 1.85c-4.766 3.882-5.57 10.854-1.816 15.72s10.703 5.855 15.666 2.23l2.4-1.85c4.766-3.882 5.57-10.854 1.816-15.72s-10.703-5.855-15.666-2.23z"/><path d="M926.45 622.87l-2.4 1.84a11.36 11.36 0 0 0-2.075 15.925 11.36 11.36 0 0 0 15.925 2.075l2.4-1.84a11.36 11.36 0 0 0 2.075-15.925 11.36 11.36 0 0 0-15.925-2.075z"/><path d="M906.1 638.56l-2.4 1.85c-4.957 3.822-5.877 10.938-2.055 15.895s10.938 5.877 15.895 2.055l2.4-1.85a11.36 11.36 0 0 0 2.075-15.925 11.36 11.36 0 0 0-15.925-2.075z"/></g><path d="M980.75 609.6l-2.16 1.67a11.33 11.33 0 0 1-16.14-15.57zm-20.35 15.7l-2.16 1.67a11.33 11.33 0 0 1-16.14-15.56zM940.07 641l-2.16 1.67a11.33 11.33 0 0 1-16.15-15.56z" class="B"/><path d="M970.35 236.92c18.778 0 34 15.222 34 34s-15.222 34-34 34c18.778 0 34 15.222 34 34s-15.222 34-34 34c18.778 0 34 15.222 34 34s-15.222 34-34 34c18.778 0 34 15.222 34 34s-15.222 34-34 34h-164c-18.778 0-34-15.222-34-34s15.222-34 34-34c-18.778 0-34-15.222-34-34s15.222-34 34-34c-18.778 0-34-15.222-34-34s15.222-34 34-34c-18.778 0-34-15.222-34-34s15.222-34 34-34c-18.778 0-34-15.222-34-34s15.222-34 34-34c-18.778 0-34-15.222-34-34s15.222-34 34-34h7.5c4.3-29.25 37.36-52 77.5-52s73.2 22.75 77.5 52h1.5c18.778 0 34 15.222 34 34s-15.222 34-34 34c18.778 0 34 15.222 34 34s-15.222 34-34 34z" class="C"/><use xlink:href="#C" class="B"/><use xlink:href="#D" class="B"/><use xlink:href="#D" y="136" class="B"/><use xlink:href="#D" y="272" class="B"/><use xlink:href="#C" y="136" class="B"/><use xlink:href="#C" y="272" class="B"/><path d="M985.56 644.52l-54-29.07c-5.905-3.45-8.023-10.952-4.793-16.98s10.65-8.418 16.793-5.41a12.72 12.72 0 0 1-.85-22.233 12.72 12.72 0 0 1 12.91-.157l2.46 1.32c6.6-8.86 21.52-10.5 34.75-3.38s20.07 20.47 16.3 30.86l.5.27a12.71 12.71 0 0 1 .977 22.296 12.71 12.71 0 0 1-12.977.094c5.984 3.427 8.148 11 4.877 17.07s-10.783 8.43-16.937 5.32z" class="C"/><path d="M1014.85 616.96c-3.34 6.166-11.035 8.476-17.22 5.17l-54-29.07 65.73 6.5.33.18c6.162 3.345 8.467 11.038 5.16 17.22z" class="B"/><path d="M926.72 598.4c-3.313 6.177-1.022 13.87 5.13 17.23l54 29.07-41.58-51.3-.33-.18c-6.186-3.3-13.875-.99-17.22 5.17z" class="B"/><path d="M342.15 773.05l-80.64.08c-9.234 0-16.72-7.486-16.72-16.72s7.486-16.72 16.72-16.72a16.72 16.72 0 0 1-14.82-25.193 16.72 16.72 0 0 1 14.82-8.237h3.7c2.1-14.38 18.34-25.58 38.08-25.6s36 11.15 38.14 25.53h.73a16.72 16.72 0 0 1 14.82 25.193 16.72 16.72 0 0 1-14.82 8.237c9.234 0 16.72 7.486 16.72 16.72s-7.486 16.72-16.72 16.72z" class="C"/><path d="M358.85 722.88c-.016 9.22-7.48 16.697-16.7 16.73l-80.64.08 80.1-33.5h.5c9.223.016 16.702 7.477 16.74 16.7z" class="B"/><path d="M245.27 756.43c.038 9.22 7.51 16.678 16.73 16.7l80.64-.08-80.18-33.36h-.5c-9.225.033-16.69 7.515-16.7 16.74z" class="B"/><g class="C"><path d="M626.85 225.23a20.32 20.32 0 0 0-11.74 1.28 17.27 17.27 0 0 1-14.1 0 19.8 19.8 0 0 0-16.58.32 10.29 10.29 0 0 1-4.77 1.2c-6.72 0-12.3-6.77-13.47-15.7a12.94 12.94 0 0 0 3.36-3.62c3.94-6.35 10-10.42 16.9-10.42s12.9 4 16.83 10.3a13 13 0 0 0 11.16 6.13h.18c5.3-.03 9.93 4.26 12.24 10.5z" class="B"/><path d="M647.27 197.2l-10.86 6.9 6.6-12a10.69 10.69 0 0 0-6.57-2.35h-.17a12 12 0 0 1-2.25-.16l-3.7 2.33 1.58-2.87a13.13 13.13 0 0 1-6.44-4.89l-6.6 4.2 4.16-7.57c-3.85-4.62-9-7.46-14.76-7.46-6.85 0-13 4.07-16.9 10.42a12.65 12.65 0 0 1-11.17 6h-.33c-7.56 0-13.7 8.58-13.7 19.16s6.14 19.16 13.7 19.16a10.17 10.17 0 0 0 4.77-1.2 19.8 19.8 0 0 1 16.58-.32 17.5 17.5 0 0 0 7.09 1.52 17.29 17.29 0 0 0 7-1.49 19.79 19.79 0 0 1 16.43.32 10.24 10.24 0 0 0 4.72 1.17c7.57 0 13.7-8.58 13.7-19.16a24.35 24.35 0 0 0-2.87-11.69zm-235.8 89.03a20.32 20.32 0 0 1 11.74 1.28 17.24 17.24 0 0 0 14.09 0 19.8 19.8 0 0 1 16.55.3 10.32 10.32 0 0 0 4.77 1.2c6.72 0 12.32-6.77 13.48-15.7a12.79 12.79 0 0 1-3.36-3.62c-3.94-6.35-10.05-10.42-16.9-10.42s-12.88 4-16.82 10.3a13 13 0 0 1-11.17 6.12h-.17c-5.32 0-9.96 4.3-12.2 10.54z" class="B"/><path d="M391 258.2l10.86 6.9-6.6-12a10.71 10.71 0 0 1 6.57-2.35h.18a12 12 0 0 0 2.25-.16l3.68 2.33-1.58-2.87a13.15 13.15 0 0 0 6.45-4.89l6.6 4.18-4.16-7.52c3.86-4.62 9.05-7.46 14.77-7.46 6.85 0 13 4.07 16.9 10.42a12.64 12.64 0 0 0 11.17 6h.36c7.57 0 13.7 8.58 13.7 19.16s-6.13 19.16-13.7 19.16a10.23 10.23 0 0 1-4.77-1.2 19.8 19.8 0 0 0-16.58-.32 17.45 17.45 0 0 1-7.08 1.52 17.22 17.22 0 0 1-7-1.49 19.81 19.81 0 0 0-16.44.32 10.21 10.21 0 0 1-4.72 1.17c-7.56 0-13.7-8.58-13.7-19.16a24.35 24.35 0 0 1 2.85-11.73z" class="B"/><path d="M529.774 659.044l70.08-69.12.32 87.84-54.197-15.94" stroke="#000" class="D"/></g><path d="M528.574 571.044l.32 86.64 70.96-67.76.88 87.28 65.6-104.48z" fill="#fff" fill-opacity=".657"/><g stroke="#000"><path d="M603.925 674.345l61.527-98.34-.32 82.48-57.693 17.14" class="C D"/><g fill="none" stroke-width="4"><path d="M527.214 571.364h2.72l135.76.16c-1.76-.48-65.84 18.4-65.84 18.4z"/><path d="M528.574 571.044l.32 86.64 71.28 20.08 64.96-19.28.32-82.48-63.04 99.2-2.8.8-.08-84.56-1.44-.08-68.32 67.68"/></g></g><path d="M593.133 559.764h12.8v29.52h-12.8zm.48 116.08h11.84v114.24h-11.84z"/><defs ><path id="B" d="M918.35 533.7v7.23c-.016 14.863-10.913 27.474-25.617 29.646s-28.78-6.75-33.093-20.976z"/><path id="C" d="M1004.35 134.92c-.055 18.755-15.245 33.945-34 34h-164l163-68h1c18.755.055 33.945 15.245 34 34z"/><path id="D" d="M773.35 202.92c.055 18.755 15.245 33.945 34 34h164l-163-68h-1c-18.755.055-33.945 15.245-34 34z"/></defs></svg>